<?xml version="1.0" encoding="UTF-8" standalone="no"?><svg xmlns="http://www.w3.org/2000/svg" xmlns:xlink="http://www.w3.org/1999/xlink" contentScriptType="application/ecmascript" contentStyleType="text/css" height="979px" preserveAspectRatio="none" style="width:1632px;height:979px;" version="1.1" viewBox="0 0 1632 979" width="1632px" zoomAndPan="magnify"><defs><filter height="300%" id="f19bdcbiy6dqqt" width="300%" x="-1" y="-1"><feGaussianBlur result="blurOut" stdDeviation="2.0"/><feColorMatrix in="blurOut" result="blurOut2" type="matrix" values="0 0 0 0 0 0 0 0 0 0 0 0 0 0 0 0 0 0 .4 0"/><feOffset dx="4.0" dy="4.0" in="blurOut2" result="blurOut3"/><feBlend in="SourceGraphic" in2="blurOut3" mode="normal"/></filter></defs><g><!--MD5=[a7646f0e1420a15693556f033cb7042c]
entity clem--><rect fill="#FEFECE" filter="url(#f19bdcbiy6dqqt)" height="101.4844" style="stroke: #000000; stroke-width: 1.5;" width="208" x="435" y="154"/><text fill="#000000" font-family="sans-serif" font-size="14" font-weight="bold" lengthAdjust="spacingAndGlyphs" textLength="125" x="445" y="176.9951">Stig Magnusson</text><text fill="#000000" font-family="sans-serif" font-size="14" lengthAdjust="spacingAndGlyphs" textLength="98" x="445" y="193.292">Simple Farmer</text><text fill="#000000" font-family="sans-serif" font-size="14" lengthAdjust="spacingAndGlyphs" textLength="73" x="445" y="209.5889">3 Brothers</text><text fill="#000000" font-family="sans-serif" font-size="14" lengthAdjust="spacingAndGlyphs" textLength="52" x="445" y="225.8857">1 Sister</text><text fill="#000000" font-family="sans-serif" font-size="14" lengthAdjust="spacingAndGlyphs" textLength="188" x="445" y="242.1826">Leather working apprentice</text><!--MD5=[d3e7b0c013d5d71ff84050da182e2b09]
entity erik--><rect fill="#FEFECE" filter="url(#f19bdcbiy6dqqt)" height="68.8906" style="stroke: #000000; stroke-width: 1.5;" width="157" x="460.5" y="8"/><text fill="#000000" font-family="sans-serif" font-size="14" font-weight="bold" lengthAdjust="spacingAndGlyphs" textLength="29" x="470.5" y="30.9951">Erik</text><text fill="#000000" font-family="sans-serif" font-size="14" lengthAdjust="spacingAndGlyphs" textLength="80" x="470.5" y="47.292">Stig's Uncle</text><text fill="#000000" font-family="sans-serif" font-size="14" lengthAdjust="spacingAndGlyphs" textLength="137" x="470.5" y="63.5889">Town leatherworker</text><!--MD5=[659c275dc9a506c39ec972943f7784a1]
entity rob--><rect fill="#FEFECE" filter="url(#f19bdcbiy6dqqt)" height="68.8906" style="stroke: #000000; stroke-width: 1.5;" width="155" x="927.5" y="170"/><text fill="#000000" font-family="sans-serif" font-size="14" font-weight="bold" lengthAdjust="spacingAndGlyphs" textLength="135" x="937.5" y="192.9951">Tempus Meridian</text><text fill="#000000" font-family="sans-serif" font-size="14" lengthAdjust="spacingAndGlyphs" textLength="99" x="937.5" y="209.292">Town Tinkerer</text><text fill="#000000" font-family="sans-serif" font-size="14" lengthAdjust="spacingAndGlyphs" textLength="77" x="937.5" y="225.5889">book worm</text><!--MD5=[4a9bbcebd33ee0e075f423d682c1cae8]
entity phineus--><rect fill="#FEFECE" filter="url(#f19bdcbiy6dqqt)" height="68.8906" style="stroke: #000000; stroke-width: 1.5;" width="175" x="1132.5" y="332"/><text fill="#000000" font-family="sans-serif" font-size="14" font-weight="bold" lengthAdjust="spacingAndGlyphs" textLength="135" x="1142.5" y="354.9951">Phineus Meridian</text><text fill="#000000" font-family="sans-serif" font-size="14" lengthAdjust="spacingAndGlyphs" textLength="155" x="1142.5" y="371.292">Disgraced Clockmaker</text><text fill="#000000" font-family="sans-serif" font-size="14" lengthAdjust="spacingAndGlyphs" textLength="136" x="1142.5" y="387.5889">Depressed old man</text><!--MD5=[6923b14db3ccab23edb44abc59d3c619]
entity eva--><rect fill="#FEFECE" filter="url(#f19bdcbiy6dqqt)" height="52.5938" style="stroke: #000000; stroke-width: 1.5;" width="143" x="916.5" y="486"/><text fill="#000000" font-family="sans-serif" font-size="14" font-weight="bold" lengthAdjust="spacingAndGlyphs" textLength="27" x="926.5" y="508.9951">Eva</text><text fill="#000000" font-family="sans-serif" font-size="14" lengthAdjust="spacingAndGlyphs" textLength="123" x="926.5" y="525.292">Town seamstress</text><!--MD5=[8ad1ebb61c3fda0062e1bce3f9f93137]
entity dave--><rect fill="#FEFECE" filter="url(#f19bdcbiy6dqqt)" height="85.1875" style="stroke: #000000; stroke-width: 1.5;" width="168" x="713" y="754"/><text fill="#000000" font-family="sans-serif" font-size="14" font-weight="bold" lengthAdjust="spacingAndGlyphs" textLength="85" x="723" y="776.9951">Dylan Calix</text><text fill="#000000" font-family="sans-serif" font-size="14" lengthAdjust="spacingAndGlyphs" textLength="89" x="723" y="793.292">Town Hunter</text><text fill="#000000" font-family="sans-serif" font-size="14" lengthAdjust="spacingAndGlyphs" textLength="68" x="723" y="809.5889">Only Child</text><text fill="#000000" font-family="sans-serif" font-size="14" lengthAdjust="spacingAndGlyphs" textLength="148" x="723" y="825.8857">Parents killed by Orcs</text><!--MD5=[e4c8e99405d3468cc762edcb1e100b2a]
entity aronan--><rect fill="#FEFECE" filter="url(#f19bdcbiy6dqqt)" height="52.5938" style="stroke: #000000; stroke-width: 1.5;" width="108" x="743" y="916"/><text fill="#000000" font-family="sans-serif" font-size="14" font-weight="bold" lengthAdjust="spacingAndGlyphs" textLength="57" x="753" y="938.9951">Aronan</text><text fill="#000000" font-family="sans-serif" font-size="14" lengthAdjust="spacingAndGlyphs" textLength="88" x="753" y="955.292">Town hunter</text><!--MD5=[d1982080363b8351504a29dbc505e3fb]
entity martin--><rect fill="#FEFECE" filter="url(#f19bdcbiy6dqqt)" height="52.5938" style="stroke: #000000; stroke-width: 1.5;" width="172" x="272" y="624"/><text fill="#000000" font-family="sans-serif" font-size="14" font-weight="bold" lengthAdjust="spacingAndGlyphs" textLength="48" x="282" y="646.9951">Simon</text><text fill="#000000" font-family="sans-serif" font-size="14" lengthAdjust="spacingAndGlyphs" textLength="152" x="282" y="663.292">Blacksmith's assistant</text><!--MD5=[9e57aa5f7410d9462fd929edb1c5ae02]
entity ulf--><rect fill="#FEFECE" filter="url(#f19bdcbiy6dqqt)" height="52.5938" style="stroke: #000000; stroke-width: 1.5;" width="137" x="75.5" y="770"/><text fill="#000000" font-family="sans-serif" font-size="14" font-weight="bold" lengthAdjust="spacingAndGlyphs" textLength="21" x="85.5" y="792.9951">Ulf</text><text fill="#000000" font-family="sans-serif" font-size="14" lengthAdjust="spacingAndGlyphs" textLength="117" x="85.5" y="809.292">Town Blacksmith</text><!--MD5=[e7b279934d7ffe2df6ca63249ca8422c]
entity james--><rect fill="#FEFECE" filter="url(#f19bdcbiy6dqqt)" height="68.8906" style="stroke: #000000; stroke-width: 1.5;" width="271" x="1094.5" y="478"/><text fill="#000000" font-family="sans-serif" font-size="14" font-weight="bold" lengthAdjust="spacingAndGlyphs" textLength="166" x="1104.5" y="500.9951">Rupert "Bobby" Hook</text><text fill="#000000" font-family="sans-serif" font-size="14" lengthAdjust="spacingAndGlyphs" textLength="251" x="1104.5" y="517.292">Mischievous charming town trickster</text><text fill="#000000" font-family="sans-serif" font-size="14" lengthAdjust="spacingAndGlyphs" textLength="64" x="1104.5" y="533.5889">Day labor</text><!--MD5=[31eff58ec5754c6f120006abc72f2732]
entity mittens--><rect fill="#FEFECE" filter="url(#f19bdcbiy6dqqt)" height="52.5938" style="stroke: #000000; stroke-width: 1.5;" width="111" x="1274.5" y="624"/><text fill="#000000" font-family="sans-serif" font-size="14" font-weight="bold" lengthAdjust="spacingAndGlyphs" textLength="58" x="1284.5" y="646.9951">Mittens</text><text fill="#000000" font-family="sans-serif" font-size="14" lengthAdjust="spacingAndGlyphs" textLength="91" x="1284.5" y="663.292">That darn cat</text><!--MD5=[e6d0a6cb09329b53c769920b7683ced2]
entity igron--><rect fill="#FEFECE" filter="url(#f19bdcbiy6dqqt)" height="52.5938" style="stroke: #000000; stroke-width: 1.5;" width="167" x="714.5" y="486"/><text fill="#000000" font-family="sans-serif" font-size="14" font-weight="bold" lengthAdjust="spacingAndGlyphs" textLength="41" x="724.5" y="508.9951">Igron</text><text fill="#000000" font-family="sans-serif" font-size="14" lengthAdjust="spacingAndGlyphs" textLength="147" x="724.5" y="525.292">Town elder and cleric</text><!--MD5=[25eb2249843df658be56ba45a45892d8]
entity ingrid--><rect fill="#FEFECE" filter="url(#f19bdcbiy6dqqt)" height="36.2969" style="stroke: #000000; stroke-width: 1.5;" width="65" x="59.5" y="632.5"/><text fill="#000000" font-family="sans-serif" font-size="14" font-weight="bold" lengthAdjust="spacingAndGlyphs" textLength="45" x="69.5" y="655.4951">Ingrid</text><!--MD5=[0123d95d86118913b0453c7f6b27e6f4]
entity valgarun--><rect fill="#FEFECE" filter="url(#f19bdcbiy6dqqt)" height="52.5938" style="stroke: #000000; stroke-width: 1.5;" width="192" x="735" y="624"/><text fill="#000000" font-family="sans-serif" font-size="14" font-weight="bold" lengthAdjust="spacingAndGlyphs" textLength="172" x="745" y="646.9951">Valgarun the Abysmal</text><text fill="#000000" font-family="sans-serif" font-size="14" lengthAdjust="spacingAndGlyphs" textLength="59" x="745" y="663.292">Pit Fiend</text><!--MD5=[f4b314648a54468c45b6523cb0222ebf]
reverse link james to valgarun--><path d="M1089.52,544.46 C1085.3,545.33 1081.12,546.17 1077,547 C1003.92,561.64 978.95,544.25 912,577 C889.11,588.2 867.84,607.75 852.84,623.72 " fill="none" id="james&lt;-valgarun" style="stroke: #A80036; stroke-width: 1.0;"/><polygon fill="#A80036" points="1094.49,543.44,1084.8719,541.3204,1089.591,544.4398,1086.4716,549.1589,1094.49,543.44" style="stroke: #A80036; stroke-width: 1.0;"/><text fill="#000000" font-family="sans-serif" font-size="13" lengthAdjust="spacingAndGlyphs" textLength="98" x="913" y="590.0669">spurned patron</text><!--MD5=[8b41ad82ea833bec823d4677beff0322]
reverse link igron to valgarun--><path d="M791.67,544.11 C789.7,559.39 789.15,578 794,594 C797.19,604.53 803.11,614.89 809.29,623.75 " fill="none" id="igron&lt;-valgarun" style="stroke: #A80036; stroke-width: 1.0;"/><polygon fill="#A80036" points="792.38,539.06,787.1575,547.4102,791.6789,544.0106,795.0785,548.532,792.38,539.06" style="stroke: #A80036; stroke-width: 1.0;"/><text fill="#000000" font-family="sans-serif" font-size="13" lengthAdjust="spacingAndGlyphs" textLength="76" x="795" y="590.0669">Dark Patron</text><!--MD5=[9327ecae6b8de20868c1c384add83dda]
reverse link ingrid to ulf--><path d="M80.03,673.43 C73.67,688.09 68.39,707.63 75,724 C82.17,741.76 96.09,757.56 109.57,769.76 " fill="none" id="ingrid&lt;-ulf" style="stroke: #A80036; stroke-width: 1.0;"/><polygon fill="#A80036" points="82.22,668.65,74.8296,675.1602,80.1338,673.194,82.1,678.4981,82.22,668.65" style="stroke: #A80036; stroke-width: 1.0;"/><text fill="#000000" font-family="sans-serif" font-size="13" lengthAdjust="spacingAndGlyphs" textLength="90" x="76" y="720.0669">deceased wife</text><!--MD5=[36dd72ad9ff3080fa170d5848dc60c7f]
reverse link phineus to rob--><path d="M1127.07,353.12 C1092.73,344.14 1056.09,328.67 1031,302 C1015.19,285.19 1008.79,259.8 1006.29,239.28 " fill="none" id="phineus&lt;-rob" style="stroke: #A80036; stroke-width: 1.0;"/><polygon fill="#A80036" points="1132.12,354.4,1124.3757,348.3152,1127.2727,353.1739,1122.4139,356.0709,1132.12,354.4" style="stroke: #A80036; stroke-width: 1.0;"/><text fill="#000000" font-family="sans-serif" font-size="13" lengthAdjust="spacingAndGlyphs" textLength="151" x="1032" y="298.0669">daughter and caretaker</text><!--MD5=[eeb456bad705177ee52ae6c52fb4be2a]
reverse link rob to phineus--><path d="M1087.95,226.22 C1122.61,238.44 1161,257.14 1188,285 C1200.35,297.74 1208.11,315.84 1212.89,331.65 " fill="none" id="rob&lt;-phineus" style="stroke: #A80036; stroke-width: 1.0;"/><polygon fill="#A80036" points="1082.86,224.46,1090.0669,231.1727,1087.5875,226.0882,1092.672,223.6088,1082.86,224.46" style="stroke: #A80036; stroke-width: 1.0;"/><text fill="#000000" font-family="sans-serif" font-size="13" lengthAdjust="spacingAndGlyphs" textLength="38" x="1201" y="298.0669">father</text><!--MD5=[f0f1b19356b9f6255b60b3dd995ef604]
reverse link phineus to eva--><path d="M1161.44,403.85 C1120.14,429.48 1065.86,463.17 1029.11,485.99 " fill="none" id="phineus&lt;-eva" style="stroke: #A80036; stroke-width: 1.0;"/><polygon fill="#A80036" points="1165.9,401.08,1156.1427,402.4195,1161.6496,403.7133,1160.3559,409.2202,1165.9,401.08" style="stroke: #A80036; stroke-width: 1.0;"/><text fill="#000000" font-family="sans-serif" font-size="13" lengthAdjust="spacingAndGlyphs" textLength="44" x="1111" y="444.0669">Ex-wife</text><!--MD5=[7144a75a07053f79cb172292eaa0d362]
reverse link clem to eva--><path d="M551.37,260.12 C563.37,302.75 585.27,361.22 622,401 C637.31,417.58 690.58,440.9 712,448 C791.9,474.49 817.65,456.4 899,478 C907.46,480.25 916.23,483 924.82,485.95 " fill="none" id="clem&lt;-eva" style="stroke: #A80036; stroke-width: 1.0;"/><polygon fill="#A80036" points="550.03,255.27,548.5609,265.0087,551.3564,260.0908,556.2743,262.8864,550.03,255.27" style="stroke: #A80036; stroke-width: 1.0;"/><text fill="#000000" font-family="sans-serif" font-size="13" lengthAdjust="spacingAndGlyphs" textLength="69" x="623" y="371.0669">Step-mom</text><!--MD5=[be8917b6a6f408d1a0bae65795b82e78]
reverse link phineus to james--><path d="M1222.71,406.52 C1224.26,428.86 1226.19,456.6 1227.67,477.95 " fill="none" id="phineus&lt;-james" style="stroke: #A80036; stroke-width: 1.0;"/><polygon fill="#A80036" points="1222.34,401.26,1218.9669,410.5132,1222.683,406.2482,1226.948,409.9644,1222.34,401.26" style="stroke: #A80036; stroke-width: 1.0;"/><text fill="#000000" font-family="sans-serif" font-size="13" lengthAdjust="spacingAndGlyphs" textLength="61" x="1226" y="444.0669">destroyer</text><!--MD5=[0750419b1b1f9bcda5c7d85c3426d42b]
link clem to rob--><path d="M648.37,204.5 C731.95,204.5 845.4,204.5 921.71,204.5 " fill="none" id="clem-rob" style="stroke: #A80036; stroke-width: 1.0;"/><polygon fill="#A80036" points="927.14,204.5,918.14,200.5,922.14,204.5,918.14,208.5,927.14,204.5" style="stroke: #A80036; stroke-width: 1.0;"/><polygon fill="#A80036" points="643.29,204.5,652.29,208.5,648.29,204.5,652.29,200.5,643.29,204.5" style="stroke: #A80036; stroke-width: 1.0;"/><text fill="#000000" font-family="sans-serif" font-size="13" lengthAdjust="spacingAndGlyphs" textLength="80" x="745.25" y="197.5669">step-siblings</text><!--MD5=[c719c4bd36a0175e5f3c212c5fde6ff0]
reverse link martin to rob--><path d="M368.38,619.01 C384.04,574.8 414.38,496.2 438,478 C590.4,360.56 701.23,503.59 864,401 C926.31,361.73 969.59,284.05 990.55,239.34 " fill="none" id="martin&lt;-rob" style="stroke: #A80036; stroke-width: 1.0;"/><polygon fill="#A80036" points="366.64,623.96,373.4175,616.814,368.3108,619.2474,365.8774,614.1407,366.64,623.96" style="stroke: #A80036; stroke-width: 1.0;"/><text fill="#000000" font-family="sans-serif" font-size="13" lengthAdjust="spacingAndGlyphs" textLength="126" x="796" y="444.0669">has secret crush on</text><!--MD5=[cf6649ec74f4c14f5baa5a2e97680797]
reverse link dave to rob--><path d="M886.42,793.92 C1062.89,788.37 1439,763.41 1439,651.5 C1439,365.5 1439,365.5 1439,365.5 C1439,290.42 1207.42,239.65 1082.59,217.74 " fill="none" id="dave&lt;-rob" style="stroke: #A80036; stroke-width: 1.0;"/><polygon fill="#A80036" points="881.26,794.08,890.3815,797.7945,886.2575,793.9225,890.1295,789.7985,881.26,794.08" style="stroke: #A80036; stroke-width: 1.0;"/><text fill="#000000" font-family="sans-serif" font-size="13" lengthAdjust="spacingAndGlyphs" textLength="180" x="1440" y="517.0669">using to get closer to Simon</text><!--MD5=[dcb41e4dcb47eb023ed7c4c526bb695c]
reverse link rob to eva--><path d="M1002.84,244.33 C999.32,307.8 992.41,432.08 989.43,485.78 " fill="none" id="rob&lt;-eva" style="stroke: #A80036; stroke-width: 1.0;"/><polygon fill="#A80036" points="1003.13,239.12,998.6467,247.8892,1002.8582,244.1126,1006.6348,248.3241,1003.13,239.12" style="stroke: #A80036; stroke-width: 1.0;"/><text fill="#000000" font-family="sans-serif" font-size="13" lengthAdjust="spacingAndGlyphs" textLength="47" x="998" y="371.0669">mother</text><!--MD5=[8cc2bdb16e919e819c37a5812dfa0b67]
reverse link dave to aronan--><path d="M746.6,843.62 C740.65,851.48 735.47,860.02 732,869 C725.05,886.97 737.18,903.32 752.77,915.92 " fill="none" id="dave&lt;-aronan" style="stroke: #A80036; stroke-width: 1.0;"/><polygon fill="#A80036" points="749.98,839.33,741.2751,843.937,746.8915,843.2621,747.5664,848.8785,749.98,839.33" style="stroke: #A80036; stroke-width: 1.0;"/><text fill="#000000" font-family="sans-serif" font-size="13" lengthAdjust="spacingAndGlyphs" textLength="82" x="733" y="882.0669">Foster father</text><!--MD5=[a076523bda75da09046cc785c4bbde04]
reverse link aronan to dave--><path d="M812.12,911.06 C815.37,903.09 818.33,894.39 820,886 C823.07,870.59 820.32,853.86 815.8,839.14 " fill="none" id="aronan&lt;-dave" style="stroke: #A80036; stroke-width: 1.0;"/><polygon fill="#A80036" points="810.07,915.91,817.2667,909.1864,812.0224,911.3069,809.9018,906.0626,810.07,915.91" style="stroke: #A80036; stroke-width: 1.0;"/><text fill="#000000" font-family="sans-serif" font-size="13" lengthAdjust="spacingAndGlyphs" textLength="69" x="822" y="882.0669">Apprentice</text><!--MD5=[ff95d746b5648da416227d9e81f6e5c9]
reverse link clem to dave--><path d="M515.46,260.01 C489.01,329.91 455.13,453.29 499,547 C543.2,641.41 642.86,712.49 714.77,753.94 " fill="none" id="clem&lt;-dave" style="stroke: #A80036; stroke-width: 1.0;"/><polygon fill="#A80036" points="517.35,255.07,510.3815,262.0299,515.5522,259.7356,517.8465,264.9063,517.35,255.07" style="stroke: #A80036; stroke-width: 1.0;"/><text fill="#000000" font-family="sans-serif" font-size="13" lengthAdjust="spacingAndGlyphs" textLength="196" x="500" y="517.0669">Distrustful because he's cheap</text><!--MD5=[b838a16bac897e74adb6097beb97d667]
reverse link ulf to martin--><path d="M217.48,769.29 C244.31,757.75 273.95,742.55 298,724 C314.95,710.93 330.26,692.25 341.18,677.13 " fill="none" id="ulf&lt;-martin" style="stroke: #A80036; stroke-width: 1.0;"/><polygon fill="#A80036" points="212.85,771.26,222.6974,771.4282,217.4531,769.3076,219.5736,764.0633,212.85,771.26" style="stroke: #A80036; stroke-width: 1.0;"/><text fill="#000000" font-family="sans-serif" font-size="13" lengthAdjust="spacingAndGlyphs" textLength="58" x="317" y="720.0669">assistant</text><!--MD5=[249098955f22f67528879bd0cae48a3c]
reverse link martin to ulf--><path d="M267,673.24 C244.61,681.4 221.71,692.38 203,707 C181.76,723.6 165.55,750.05 155.55,769.72 " fill="none" id="martin&lt;-ulf" style="stroke: #A80036; stroke-width: 1.0;"/><polygon fill="#A80036" points="271.77,671.54,261.9507,670.7774,267.0574,673.2108,264.624,678.3175,271.77,671.54" style="stroke: #A80036; stroke-width: 1.0;"/><text fill="#000000" font-family="sans-serif" font-size="13" lengthAdjust="spacingAndGlyphs" textLength="85" x="204" y="720.0669">Foster Father</text><!--MD5=[745eb2b404c57dfd5ef74492bb7ad840]
reverse link james to clem--><path d="M1101.69,476.42 C1036.81,457.06 957.52,430.89 889,401 C792.03,358.7 686.83,297.71 617.35,255.13 " fill="none" id="james&lt;-clem" style="stroke: #A80036; stroke-width: 1.0;"/><polygon fill="#A80036" points="1106.73,477.92,1099.2502,471.5128,1101.9389,476.4898,1096.9619,479.1786,1106.73,477.92" style="stroke: #A80036; stroke-width: 1.0;"/><text fill="#000000" font-family="sans-serif" font-size="13" lengthAdjust="spacingAndGlyphs" textLength="95" x="890" y="371.0669">vegetable thief</text><!--MD5=[5106d2dedf3b7745f4be2d377924a634]
reverse link dave to james--><path d="M862.53,751.04 C914.26,716.12 988.41,666.46 1054,624 C1094.43,597.82 1140.56,568.9 1175.44,547.21 " fill="none" id="dave&lt;-james" style="stroke: #A80036; stroke-width: 1.0;"/><polygon fill="#A80036" points="858.22,753.95,867.9165,752.2244,862.3626,751.1502,863.4368,745.5963,858.22,753.95" style="stroke: #A80036; stroke-width: 1.0;"/><text fill="#000000" font-family="sans-serif" font-size="13" lengthAdjust="spacingAndGlyphs" textLength="201" x="1055" y="655.0669">favorite mark for practical jokes</text><!--MD5=[8139e85bfb68b7ad9dd2c27193a9c168]
reverse link erik to clem--><path d="M539,82.12 C539,103.68 539,130.78 539,153.9 " fill="none" id="erik&lt;-clem" style="stroke: #A80036; stroke-width: 1.0;"/><polygon fill="#A80036" points="539,77.04,535,86.04,539,82.04,543,86.04,539,77.04" style="stroke: #A80036; stroke-width: 1.0;"/><text fill="#000000" font-family="sans-serif" font-size="13" lengthAdjust="spacingAndGlyphs" textLength="68" x="540" y="120.0669">apprentice</text><!--MD5=[6cc53ba1b6f50feb198f8deedcb8654a]
link clem to martin--><path d="M477.33,258.88 C434.49,300.62 381.55,362.86 361,431 C341.53,495.57 347.65,575.83 353.21,618.85 " fill="none" id="clem-martin" style="stroke: #A80036; stroke-width: 1.0;"/><polygon fill="#A80036" points="353.89,623.91,356.6726,614.4624,353.2329,618.9534,348.742,615.5137,353.89,623.91" style="stroke: #A80036; stroke-width: 1.0;"/><polygon fill="#A80036" points="481.18,255.15,471.9318,258.5368,477.5879,258.6281,477.4967,264.2842,481.18,255.15" style="stroke: #A80036; stroke-width: 1.0;"/><text fill="#000000" font-family="sans-serif" font-size="13" lengthAdjust="spacingAndGlyphs" textLength="92" x="362" y="444.0669">Foster cousins</text><!--MD5=[b82c0b28999b681290d263cf6afcb15b]
reverse link clem to ulf--><path d="M429.93,215.98 C274,234.03 6,277.81 6,365.5 C6,365.5 6,365.5 6,651.5 C6,704.31 54.97,745.3 94.57,769.81 " fill="none" id="clem&lt;-ulf" style="stroke: #A80036; stroke-width: 1.0;"/><polygon fill="#A80036" points="434.97,215.4,425.5721,212.4539,430.0027,215.971,426.4856,220.4016,434.97,215.4" style="stroke: #A80036; stroke-width: 1.0;"/><text fill="#000000" font-family="sans-serif" font-size="13" lengthAdjust="spacingAndGlyphs" textLength="36" x="7" y="517.0669">Uncle</text><!--MD5=[54fdee65de51acbf18ffc1702e9899ff]
reverse link james to martin--><path d="M1089.05,545.14 C1085,545.8 1080.97,546.42 1077,547 C894.43,573.46 845.33,548.91 663,577 C588.23,588.52 504.74,608.9 444.04,625.13 " fill="none" id="james&lt;-martin" style="stroke: #A80036; stroke-width: 1.0;"/><polygon fill="#A80036" points="1094.21,544.29,1084.6783,541.8106,1089.2769,545.105,1085.9824,549.7036,1094.21,544.29" style="stroke: #A80036; stroke-width: 1.0;"/><text fill="#000000" font-family="sans-serif" font-size="13" lengthAdjust="spacingAndGlyphs" textLength="117" x="664" y="590.0669">immune to pranks</text><!--MD5=[1e1259a54c78221428d73a3968168f5b]
reverse link martin to dave--><path d="M381.62,680.98 C395.33,696.13 413.85,713.56 434,724 C522.25,769.74 636.45,786.31 712.98,792.26 " fill="none" id="martin&lt;-dave" style="stroke: #A80036; stroke-width: 1.0;"/><polygon fill="#A80036" points="378.24,677.19,381.2497,686.5677,381.5698,680.9199,387.2176,681.2401,378.24,677.19" style="stroke: #A80036; stroke-width: 1.0;"/><text fill="#000000" font-family="sans-serif" font-size="13" lengthAdjust="spacingAndGlyphs" textLength="97" x="435" y="720.0669">silent confidant</text><!--MD5=[1917d58d3fdcaa4e21e7a7cff14d5ec8]
reverse link james to mittens--><path d="M1257.84,551.37 C1274.86,574.51 1296.17,603.5 1311.21,623.95 " fill="none" id="james&lt;-mittens" style="stroke: #A80036; stroke-width: 1.0;"/><polygon fill="#A80036" points="1254.72,547.12,1256.8211,556.7421,1257.6787,551.1507,1263.2701,552.0082,1254.72,547.12" style="stroke: #A80036; stroke-width: 1.0;"/><text fill="#000000" font-family="sans-serif" font-size="13" lengthAdjust="spacingAndGlyphs" textLength="102" x="1289" y="590.0669">Partner in crime</text><!--MD5=[5d02a674a77c0dbc8b4fb7220ac1fbe6]
@startuml dnd-thursday-2022

rectangle clem [
**Stig Magnusson**
Simple Farmer
3 Brothers
1 Sister
Leather working apprentice
]

rectangle erik [
**Erik**
Stig's Uncle
Town leatherworker
]

rectangle rob [
**Tempus Meridian**
Town Tinkerer
book worm
]

rectangle phineus [
**Phineus Meridian**
Disgraced Clockmaker
Depressed old man
]

rectangle eva [
**Eva**
Town seamstress
]

rectangle dave [
**Dylan Calix**
Town Hunter
Only Child
Parents killed by Orcs
]

rectangle aronan [
**Aronan**
Town hunter
]

rectangle martin [
**Simon**
Blacksmith's assistant
]

rectangle ulf [
**Ulf**
Town Blacksmith
]

rectangle james [
**Rupert "Bobby" Hook**
Mischievous charming town trickster
Day labor
]

rectangle mittens [
**Mittens**
 That darn cat
]

rectangle igron [
**Igron**
Town elder and cleric
]

rectangle ingrid [
**Ingrid**
]

rectangle valgarun [
**Valgarun the Abysmal**
Pit Fiend
]


james <- - valgarun : spurned patron
igron <- - valgarun : Dark Patron

ingrid <- - ulf : deceased wife

phineus <- - rob  : daughter and caretaker
phineus <- - eva : Ex-wife
clem <- - eva : Step-mom
rob <- - phineus : father
phineus <- - james : destroyer
clem <-> rob : step-siblings
martin <- - rob : has secret crush on
dave <- - rob : using to get closer to Simon

rob <- - eva : mother

dave <- - aronan : Foster father
aronan <- - dave : Apprentice
clem <- - dave : Distrustful because he's cheap

ulf <- - martin : assistant
martin <- - ulf : Foster Father

james <- - clem : vegetable thief
dave <- - james : favorite mark for practical jokes
erik <- - clem: apprentice
clem <-> martin : Foster cousins
clem <- - ulf  : Uncle
james <- - martin : immune to pranks
martin <- - dave : silent confidant

james <- - mittens  : Partner in crime

@enduml

PlantUML version 1.2020.02(Sun Mar 01 05:22:07 EST 2020)
(GPL source distribution)
Java Runtime: OpenJDK Runtime Environment
JVM: OpenJDK 64-Bit Server VM
Java Version: 11.0.15+10-post-Debian-1deb11u1
Operating System: Linux
Default Encoding: UTF-8
Language: en
Country: US
--></g></svg>