<?xml version="1.0" encoding="UTF-8" standalone="no"?><svg xmlns="http://www.w3.org/2000/svg" xmlns:xlink="http://www.w3.org/1999/xlink" contentScriptType="application/ecmascript" contentStyleType="text/css" height="979px" preserveAspectRatio="none" style="width:1562px;height:979px;" version="1.1" viewBox="0 0 1562 979" width="1562px" zoomAndPan="magnify"><defs><filter height="300%" id="f1grgkaiyxh1zf" width="300%" x="-1" y="-1"><feGaussianBlur result="blurOut" stdDeviation="2.0"/><feColorMatrix in="blurOut" result="blurOut2" type="matrix" values="0 0 0 0 0 0 0 0 0 0 0 0 0 0 0 0 0 0 .4 0"/><feOffset dx="4.0" dy="4.0" in="blurOut2" result="blurOut3"/><feBlend in="SourceGraphic" in2="blurOut3" mode="normal"/></filter></defs><g><!--MD5=[a7646f0e1420a15693556f033cb7042c]
entity clem--><rect fill="#FEFECE" filter="url(#f1grgkaiyxh1zf)" height="101.4844" style="stroke: #000000; stroke-width: 1.5;" width="208" x="527" y="154"/><text fill="#000000" font-family="sans-serif" font-size="14" font-weight="bold" lengthAdjust="spacingAndGlyphs" textLength="125" x="537" y="176.9951">Stig Magnusson</text><text fill="#000000" font-family="sans-serif" font-size="14" lengthAdjust="spacingAndGlyphs" textLength="98" x="537" y="193.292">Simple Farmer</text><text fill="#000000" font-family="sans-serif" font-size="14" lengthAdjust="spacingAndGlyphs" textLength="73" x="537" y="209.5889">3 Brothers</text><text fill="#000000" font-family="sans-serif" font-size="14" lengthAdjust="spacingAndGlyphs" textLength="52" x="537" y="225.8857">1 Sister</text><text fill="#000000" font-family="sans-serif" font-size="14" lengthAdjust="spacingAndGlyphs" textLength="188" x="537" y="242.1826">Leather working apprentice</text><!--MD5=[d3e7b0c013d5d71ff84050da182e2b09]
entity erik--><rect fill="#FEFECE" filter="url(#f1grgkaiyxh1zf)" height="68.8906" style="stroke: #000000; stroke-width: 1.5;" width="157" x="552.5" y="8"/><text fill="#000000" font-family="sans-serif" font-size="14" font-weight="bold" lengthAdjust="spacingAndGlyphs" textLength="29" x="562.5" y="30.9951">Erik</text><text fill="#000000" font-family="sans-serif" font-size="14" lengthAdjust="spacingAndGlyphs" textLength="80" x="562.5" y="47.292">Stig's Uncle</text><text fill="#000000" font-family="sans-serif" font-size="14" lengthAdjust="spacingAndGlyphs" textLength="137" x="562.5" y="63.5889">Town leatherworker</text><!--MD5=[659c275dc9a506c39ec972943f7784a1]
entity rob--><rect fill="#FEFECE" filter="url(#f1grgkaiyxh1zf)" height="68.8906" style="stroke: #000000; stroke-width: 1.5;" width="155" x="990.5" y="170"/><text fill="#000000" font-family="sans-serif" font-size="14" font-weight="bold" lengthAdjust="spacingAndGlyphs" textLength="135" x="1000.5" y="192.9951">Tempus Meridian</text><text fill="#000000" font-family="sans-serif" font-size="14" lengthAdjust="spacingAndGlyphs" textLength="99" x="1000.5" y="209.292">Town Tinkerer</text><text fill="#000000" font-family="sans-serif" font-size="14" lengthAdjust="spacingAndGlyphs" textLength="77" x="1000.5" y="225.5889">book worm</text><!--MD5=[4a9bbcebd33ee0e075f423d682c1cae8]
entity phineus--><rect fill="#FEFECE" filter="url(#f1grgkaiyxh1zf)" height="68.8906" style="stroke: #000000; stroke-width: 1.5;" width="175" x="1021.5" y="332"/><text fill="#000000" font-family="sans-serif" font-size="14" font-weight="bold" lengthAdjust="spacingAndGlyphs" textLength="135" x="1031.5" y="354.9951">Phineus Meridian</text><text fill="#000000" font-family="sans-serif" font-size="14" lengthAdjust="spacingAndGlyphs" textLength="155" x="1031.5" y="371.292">Disgraced Clockmaker</text><text fill="#000000" font-family="sans-serif" font-size="14" lengthAdjust="spacingAndGlyphs" textLength="136" x="1031.5" y="387.5889">Depressed old man</text><!--MD5=[6923b14db3ccab23edb44abc59d3c619]
entity eva--><rect fill="#FEFECE" filter="url(#f1grgkaiyxh1zf)" height="52.5938" style="stroke: #000000; stroke-width: 1.5;" width="143" x="1155.5" y="486"/><text fill="#000000" font-family="sans-serif" font-size="14" font-weight="bold" lengthAdjust="spacingAndGlyphs" textLength="27" x="1165.5" y="508.9951">Eva</text><text fill="#000000" font-family="sans-serif" font-size="14" lengthAdjust="spacingAndGlyphs" textLength="123" x="1165.5" y="525.292">Town seamstress</text><!--MD5=[8ad1ebb61c3fda0062e1bce3f9f93137]
entity dave--><rect fill="#FEFECE" filter="url(#f1grgkaiyxh1zf)" height="85.1875" style="stroke: #000000; stroke-width: 1.5;" width="168" x="717" y="754"/><text fill="#000000" font-family="sans-serif" font-size="14" font-weight="bold" lengthAdjust="spacingAndGlyphs" textLength="85" x="727" y="776.9951">Dylan Calix</text><text fill="#000000" font-family="sans-serif" font-size="14" lengthAdjust="spacingAndGlyphs" textLength="89" x="727" y="793.292">Town Hunter</text><text fill="#000000" font-family="sans-serif" font-size="14" lengthAdjust="spacingAndGlyphs" textLength="68" x="727" y="809.5889">Only Child</text><text fill="#000000" font-family="sans-serif" font-size="14" lengthAdjust="spacingAndGlyphs" textLength="148" x="727" y="825.8857">Parents killed by Orcs</text><!--MD5=[e4c8e99405d3468cc762edcb1e100b2a]
entity aronan--><rect fill="#FEFECE" filter="url(#f1grgkaiyxh1zf)" height="52.5938" style="stroke: #000000; stroke-width: 1.5;" width="108" x="747" y="916"/><text fill="#000000" font-family="sans-serif" font-size="14" font-weight="bold" lengthAdjust="spacingAndGlyphs" textLength="57" x="757" y="938.9951">Aronan</text><text fill="#000000" font-family="sans-serif" font-size="14" lengthAdjust="spacingAndGlyphs" textLength="88" x="757" y="955.292">Town hunter</text><!--MD5=[d1982080363b8351504a29dbc505e3fb]
entity martin--><rect fill="#FEFECE" filter="url(#f1grgkaiyxh1zf)" height="52.5938" style="stroke: #000000; stroke-width: 1.5;" width="172" x="160" y="624"/><text fill="#000000" font-family="sans-serif" font-size="14" font-weight="bold" lengthAdjust="spacingAndGlyphs" textLength="48" x="170" y="646.9951">Simon</text><text fill="#000000" font-family="sans-serif" font-size="14" lengthAdjust="spacingAndGlyphs" textLength="152" x="170" y="663.292">Blacksmith's assistant</text><!--MD5=[9e57aa5f7410d9462fd929edb1c5ae02]
entity ulf--><rect fill="#FEFECE" filter="url(#f1grgkaiyxh1zf)" height="52.5938" style="stroke: #000000; stroke-width: 1.5;" width="137" x="23.5" y="770"/><text fill="#000000" font-family="sans-serif" font-size="14" font-weight="bold" lengthAdjust="spacingAndGlyphs" textLength="21" x="33.5" y="792.9951">Ulf</text><text fill="#000000" font-family="sans-serif" font-size="14" lengthAdjust="spacingAndGlyphs" textLength="117" x="33.5" y="809.292">Town Blacksmith</text><!--MD5=[e7b279934d7ffe2df6ca63249ca8422c]
entity james--><rect fill="#FEFECE" filter="url(#f1grgkaiyxh1zf)" height="68.8906" style="stroke: #000000; stroke-width: 1.5;" width="271" x="356.5" y="478"/><text fill="#000000" font-family="sans-serif" font-size="14" font-weight="bold" lengthAdjust="spacingAndGlyphs" textLength="166" x="366.5" y="500.9951">Rupert "Bobby" Hook</text><text fill="#000000" font-family="sans-serif" font-size="14" lengthAdjust="spacingAndGlyphs" textLength="251" x="366.5" y="517.292">Mischievous charming town trickster</text><text fill="#000000" font-family="sans-serif" font-size="14" lengthAdjust="spacingAndGlyphs" textLength="64" x="366.5" y="533.5889">Day labor</text><!--MD5=[31eff58ec5754c6f120006abc72f2732]
entity mittens--><rect fill="#FEFECE" filter="url(#f1grgkaiyxh1zf)" height="52.5938" style="stroke: #000000; stroke-width: 1.5;" width="111" x="378.5" y="624"/><text fill="#000000" font-family="sans-serif" font-size="14" font-weight="bold" lengthAdjust="spacingAndGlyphs" textLength="58" x="388.5" y="646.9951">Mittens</text><text fill="#000000" font-family="sans-serif" font-size="14" lengthAdjust="spacingAndGlyphs" textLength="91" x="388.5" y="663.292">That darn cat</text><!--MD5=[e6d0a6cb09329b53c769920b7683ced2]
entity igron--><rect fill="#FEFECE" filter="url(#f1grgkaiyxh1zf)" height="52.5938" style="stroke: #000000; stroke-width: 1.5;" width="167" x="684.5" y="486"/><text fill="#000000" font-family="sans-serif" font-size="14" font-weight="bold" lengthAdjust="spacingAndGlyphs" textLength="41" x="694.5" y="508.9951">Igron</text><text fill="#000000" font-family="sans-serif" font-size="14" lengthAdjust="spacingAndGlyphs" textLength="147" x="694.5" y="525.292">Town elder and cleric</text><!--MD5=[25eb2249843df658be56ba45a45892d8]
entity ingrid--><rect fill="#FEFECE" filter="url(#f1grgkaiyxh1zf)" height="36.2969" style="stroke: #000000; stroke-width: 1.5;" width="65" x="59.5" y="632.5"/><text fill="#000000" font-family="sans-serif" font-size="14" font-weight="bold" lengthAdjust="spacingAndGlyphs" textLength="45" x="69.5" y="655.4951">Ingrid</text><!--MD5=[0123d95d86118913b0453c7f6b27e6f4]
entity valgarun--><rect fill="#FEFECE" filter="url(#f1grgkaiyxh1zf)" height="52.5938" style="stroke: #000000; stroke-width: 1.5;" width="192" x="798" y="624"/><text fill="#000000" font-family="sans-serif" font-size="14" font-weight="bold" lengthAdjust="spacingAndGlyphs" textLength="172" x="808" y="646.9951">Valgarun the Abysmal</text><text fill="#000000" font-family="sans-serif" font-size="14" lengthAdjust="spacingAndGlyphs" textLength="59" x="808" y="663.292">Pit Fiend</text><!--MD5=[7b86dac3c5ff43ffc4128c0c1276a5c9]
class ulv--><rect fill="#FEFECE" filter="url(#f1grgkaiyxh1zf)" height="48" id="ulv" style="stroke: #A80036; stroke-width: 1.5;" width="49" x="88.5" y="488.5"/><ellipse cx="103.5" cy="504.5" fill="#ADD1B2" rx="11" ry="11" style="stroke: #A80036; stroke-width: 1.0;"/><path d="M106.4688,510.1406 Q105.8906,510.4375 105.25,510.5781 Q104.6094,510.7344 103.9063,510.7344 Q101.4063,510.7344 100.0781,509.0938 Q98.7656,507.4375 98.7656,504.3125 Q98.7656,501.1875 100.0781,499.5313 Q101.4063,497.875 103.9063,497.875 Q104.6094,497.875 105.25,498.0313 Q105.9063,498.1875 106.4688,498.4844 L106.4688,501.2031 Q105.8438,500.625 105.25,500.3594 Q104.6563,500.0781 104.0313,500.0781 Q102.6875,500.0781 102,501.1563 Q101.3125,502.2188 101.3125,504.3125 Q101.3125,506.4063 102,507.4844 Q102.6875,508.5469 104.0313,508.5469 Q104.6563,508.5469 105.25,508.2813 Q105.8438,508 106.4688,507.4219 L106.4688,510.1406 Z "/><text fill="#000000" font-family="sans-serif" font-size="12" lengthAdjust="spacingAndGlyphs" textLength="17" x="117.5" y="508.6543">ulv</text><line style="stroke: #A80036; stroke-width: 1.5;" x1="89.5" x2="136.5" y1="520.5" y2="520.5"/><line style="stroke: #A80036; stroke-width: 1.5;" x1="89.5" x2="136.5" y1="528.5" y2="528.5"/><!--MD5=[f4b314648a54468c45b6523cb0222ebf]
reverse link james to valgarun--><path d="M589.11,548.75 C629.22,563.09 676.24,579.64 719,594 C749.06,604.09 782.19,614.73 811.47,623.95 " fill="none" id="james&lt;-valgarun" style="stroke: #A80036; stroke-width: 1.0;"/><polygon fill="#A80036" points="584.25,547.01,591.3712,553.8136,588.9564,548.698,594.072,546.2833,584.25,547.01" style="stroke: #A80036; stroke-width: 1.0;"/><text fill="#000000" font-family="sans-serif" font-size="13" lengthAdjust="spacingAndGlyphs" textLength="98" x="720" y="590.0669">spurned patron</text><!--MD5=[8b41ad82ea833bec823d4677beff0322]
reverse link igron to valgarun--><path d="M795.19,542.85 C817.45,566.87 848.63,600.53 869.98,623.57 " fill="none" id="igron&lt;-valgarun" style="stroke: #A80036; stroke-width: 1.0;"/><polygon fill="#A80036" points="791.7,539.08,794.8804,548.4012,795.0973,542.7485,800.75,542.9655,791.7,539.08" style="stroke: #A80036; stroke-width: 1.0;"/><text fill="#000000" font-family="sans-serif" font-size="13" lengthAdjust="spacingAndGlyphs" textLength="76" x="843" y="590.0669">Dark Patron</text><!--MD5=[9327ecae6b8de20868c1c384add83dda]
reverse link ingrid to ulf--><path d="M92,673.86 C92,699.86 92,742.67 92,769.95 " fill="none" id="ingrid&lt;-ulf" style="stroke: #A80036; stroke-width: 1.0;"/><polygon fill="#A80036" points="92,668.58,88,677.58,92,673.58,96,677.58,92,668.58" style="stroke: #A80036; stroke-width: 1.0;"/><text fill="#000000" font-family="sans-serif" font-size="13" lengthAdjust="spacingAndGlyphs" textLength="90" x="93" y="720.0669">deceased wife</text><!--MD5=[36dd72ad9ff3080fa170d5848dc60c7f]
reverse link phineus to rob--><path d="M1017.28,331.27 C1006.03,323.34 996.04,313.69 989,302 C975.54,279.65 992.26,256.96 1013.72,239.2 " fill="none" id="phineus&lt;-rob" style="stroke: #A80036; stroke-width: 1.0;"/><polygon fill="#A80036" points="1021.48,334.12,1016.2766,325.7579,1017.3419,331.3135,1011.7863,332.3789,1021.48,334.12" style="stroke: #A80036; stroke-width: 1.0;"/><text fill="#000000" font-family="sans-serif" font-size="13" lengthAdjust="spacingAndGlyphs" textLength="151" x="990" y="298.0669">daughter and caretaker</text><!--MD5=[eeb456bad705177ee52ae6c52fb4be2a]
reverse link rob to phineus--><path d="M1116.41,242.96 C1128.36,254.96 1139.57,269.27 1146,285 C1152.34,300.52 1146.58,317.42 1137.86,331.71 " fill="none" id="rob&lt;-phineus" style="stroke: #A80036; stroke-width: 1.0;"/><polygon fill="#A80036" points="1112.68,239.32,1116.3082,248.4762,1116.2511,242.8196,1121.9076,242.7625,1112.68,239.32" style="stroke: #A80036; stroke-width: 1.0;"/><text fill="#000000" font-family="sans-serif" font-size="13" lengthAdjust="spacingAndGlyphs" textLength="38" x="1149" y="298.0669">father</text><!--MD5=[f0f1b19356b9f6255b60b3dd995ef604]
reverse link phineus to eva--><path d="M1139.94,405.26 C1160.67,430.55 1187.43,463.21 1205.77,485.6 " fill="none" id="phineus&lt;-eva" style="stroke: #A80036; stroke-width: 1.0;"/><polygon fill="#A80036" points="1136.67,401.26,1139.279,410.757,1139.8385,405.1279,1145.4676,405.6874,1136.67,401.26" style="stroke: #A80036; stroke-width: 1.0;"/><text fill="#000000" font-family="sans-serif" font-size="13" lengthAdjust="spacingAndGlyphs" textLength="44" x="1172" y="444.0669">Ex-wife</text><!--MD5=[7144a75a07053f79cb172292eaa0d362]
reverse link clem to eva--><path d="M740.32,229.85 C778.58,242.03 820.15,259.75 853,285 C902.65,323.17 883.65,362.44 933,401 C951.21,415.23 1074.19,459.06 1155.22,487.05 " fill="none" id="clem&lt;-eva" style="stroke: #A80036; stroke-width: 1.0;"/><polygon fill="#A80036" points="735.18,228.24,742.5661,234.755,739.9499,229.7395,744.9653,227.1232,735.18,228.24" style="stroke: #A80036; stroke-width: 1.0;"/><text fill="#000000" font-family="sans-serif" font-size="13" lengthAdjust="spacingAndGlyphs" textLength="69" x="934" y="371.0669">Step-mom</text><!--MD5=[be8917b6a6f408d1a0bae65795b82e78]
reverse link phineus to james--><path d="M1016.1,395.14 C1008.64,397.18 1001.2,399.16 994,401 C870.68,432.5 728.95,463.2 627.61,484.21 " fill="none" id="phineus&lt;-james" style="stroke: #A80036; stroke-width: 1.0;"/><polygon fill="#A80036" points="1021.26,393.71,1011.5213,392.2409,1016.4392,395.0364,1013.6436,399.9543,1021.26,393.71" style="stroke: #A80036; stroke-width: 1.0;"/><text fill="#000000" font-family="sans-serif" font-size="13" lengthAdjust="spacingAndGlyphs" textLength="61" x="857" y="444.0669">destroyer</text><!--MD5=[0750419b1b1f9bcda5c7d85c3426d42b]
link clem to rob--><path d="M740.21,204.5 C816.06,204.5 915.57,204.5 984.97,204.5 " fill="none" id="clem-rob" style="stroke: #A80036; stroke-width: 1.0;"/><polygon fill="#A80036" points="990.33,204.5,981.33,200.5,985.33,204.5,981.33,208.5,990.33,204.5" style="stroke: #A80036; stroke-width: 1.0;"/><polygon fill="#A80036" points="735.12,204.5,744.12,208.5,740.12,204.5,744.12,200.5,735.12,204.5" style="stroke: #A80036; stroke-width: 1.0;"/><text fill="#000000" font-family="sans-serif" font-size="13" lengthAdjust="spacingAndGlyphs" textLength="80" x="822.75" y="197.5669">step-siblings</text><!--MD5=[c719c4bd36a0175e5f3c212c5fde6ff0]
reverse link martin to rob--><path d="M257.69,619.08 C272.67,582.75 301.28,521.45 339,478 C410.44,395.71 437.2,377.99 536,332 C688.13,261.19 883.79,227.86 990.35,214.01 " fill="none" id="martin&lt;-rob" style="stroke: #A80036; stroke-width: 1.0;"/><polygon fill="#A80036" points="255.75,623.82,262.85,616.9944,257.6365,619.1895,255.4413,613.976,255.75,623.82" style="stroke: #A80036; stroke-width: 1.0;"/><text fill="#000000" font-family="sans-serif" font-size="13" lengthAdjust="spacingAndGlyphs" textLength="126" x="383" y="444.0669">has secret crush on</text><!--MD5=[cf6649ec74f4c14f5baa5a2e97680797]
reverse link dave to rob--><path d="M890.27,791.28 C1050.19,781.26 1369,749.06 1369,651.5 C1369,365.5 1369,365.5 1369,365.5 C1369,264.3 1234.7,226.91 1145.51,213.23 " fill="none" id="dave&lt;-rob" style="stroke: #A80036; stroke-width: 1.0;"/><polygon fill="#A80036" points="885.12,791.6,894.3434,795.0538,890.111,791.3005,893.8643,787.0682,885.12,791.6" style="stroke: #A80036; stroke-width: 1.0;"/><text fill="#000000" font-family="sans-serif" font-size="13" lengthAdjust="spacingAndGlyphs" textLength="180" x="1370" y="517.0669">using to get closer to Simon</text><!--MD5=[dcb41e4dcb47eb023ed7c4c526bb695c]
reverse link rob to eva--><path d="M1144.35,241.74 C1163.15,253.47 1181.91,267.94 1196,285 C1244.02,343.14 1237.84,439.74 1231.46,485.69 " fill="none" id="rob&lt;-eva" style="stroke: #A80036; stroke-width: 1.0;"/><polygon fill="#A80036" points="1140.08,239.13,1145.6683,247.24,1144.3446,241.7401,1149.8445,240.4165,1140.08,239.13" style="stroke: #A80036; stroke-width: 1.0;"/><text fill="#000000" font-family="sans-serif" font-size="13" lengthAdjust="spacingAndGlyphs" textLength="47" x="1235" y="371.0669">mother</text><!--MD5=[8cc2bdb16e919e819c37a5812dfa0b67]
reverse link dave to aronan--><path d="M750.6,843.62 C744.65,851.48 739.47,860.02 736,869 C729.05,886.97 741.18,903.32 756.77,915.92 " fill="none" id="dave&lt;-aronan" style="stroke: #A80036; stroke-width: 1.0;"/><polygon fill="#A80036" points="753.98,839.33,745.2751,843.937,750.8915,843.2621,751.5664,848.8785,753.98,839.33" style="stroke: #A80036; stroke-width: 1.0;"/><text fill="#000000" font-family="sans-serif" font-size="13" lengthAdjust="spacingAndGlyphs" textLength="82" x="737" y="882.0669">Foster father</text><!--MD5=[a076523bda75da09046cc785c4bbde04]
reverse link aronan to dave--><path d="M816.12,911.06 C819.37,903.09 822.33,894.39 824,886 C827.07,870.59 824.32,853.86 819.8,839.14 " fill="none" id="aronan&lt;-dave" style="stroke: #A80036; stroke-width: 1.0;"/><polygon fill="#A80036" points="814.07,915.91,821.2667,909.1864,816.0224,911.3069,813.9018,906.0626,814.07,915.91" style="stroke: #A80036; stroke-width: 1.0;"/><text fill="#000000" font-family="sans-serif" font-size="13" lengthAdjust="spacingAndGlyphs" textLength="69" x="826" y="882.0669">Apprentice</text><!--MD5=[ff95d746b5648da416227d9e81f6e5c9]
reverse link clem to dave--><path d="M679.51,259.1 C781.08,371.37 1006.91,621.17 1008,624 C1016.44,645.99 1019.82,656.62 1008,677 C981.52,722.68 930.07,752.25 885.09,770.43 " fill="none" id="clem&lt;-dave" style="stroke: #A80036; stroke-width: 1.0;"/><polygon fill="#A80036" points="675.95,255.17,679.0174,264.529,679.3027,258.8794,684.9524,259.1647,675.95,255.17" style="stroke: #A80036; stroke-width: 1.0;"/><text fill="#000000" font-family="sans-serif" font-size="13" lengthAdjust="spacingAndGlyphs" textLength="196" x="937" y="517.0669">Distrustful because he's cheap</text><!--MD5=[e18d71d1648034922e3b6775f6b8bea7]
reverse link ulv to martin--><path d="M104.2,541.65 C100.8,558.23 99.82,578.85 110,594 C121.81,611.57 140.25,623.58 159.79,631.79 " fill="none" id="ulv&lt;-martin" style="stroke: #A80036; stroke-width: 1.0;"/><polygon fill="#A80036" points="105.33,536.64,99.4459,544.5379,104.2287,541.5172,107.2494,546.3,105.33,536.64" style="stroke: #A80036; stroke-width: 1.0;"/><text fill="#000000" font-family="sans-serif" font-size="13" lengthAdjust="spacingAndGlyphs" textLength="58" x="111" y="590.0669">assistant</text><!--MD5=[249098955f22f67528879bd0cae48a3c]
reverse link martin to ulf--><path d="M226.88,681.4 C217.3,695.17 205,711.25 192,724 C174.48,741.19 152.52,757.36 133.64,769.96 " fill="none" id="martin&lt;-ulf" style="stroke: #A80036; stroke-width: 1.0;"/><polygon fill="#A80036" points="229.76,677.2,221.3734,682.3638,226.934,681.3248,227.9731,686.8854,229.76,677.2" style="stroke: #A80036; stroke-width: 1.0;"/><text fill="#000000" font-family="sans-serif" font-size="13" lengthAdjust="spacingAndGlyphs" textLength="85" x="209" y="720.0669">Foster Father</text><!--MD5=[745eb2b404c57dfd5ef74492bb7ad840]
reverse link james to clem--><path d="M509.57,472.82 C534.7,417.49 580.92,315.76 608.51,255 " fill="none" id="james&lt;-clem" style="stroke: #A80036; stroke-width: 1.0;"/><polygon fill="#A80036" points="507.35,477.7,514.7157,471.1619,509.419,473.1482,507.4328,467.8515,507.35,477.7" style="stroke: #A80036; stroke-width: 1.0;"/><text fill="#000000" font-family="sans-serif" font-size="13" lengthAdjust="spacingAndGlyphs" textLength="95" x="575" y="371.0669">vegetable thief</text><!--MD5=[5106d2dedf3b7745f4be2d377924a634]
reverse link dave to james--><path d="M712.16,769.23 C665.24,750.84 610.75,721.44 578,677 C551.16,640.58 580.69,616.7 559,577 C553.08,566.17 544.67,556.11 535.78,547.34 " fill="none" id="dave&lt;-james" style="stroke: #A80036; stroke-width: 1.0;"/><polygon fill="#A80036" points="716.96,771.09,710.0001,764.1215,712.2944,769.2922,707.1237,771.5865,716.96,771.09" style="stroke: #A80036; stroke-width: 1.0;"/><text fill="#000000" font-family="sans-serif" font-size="13" lengthAdjust="spacingAndGlyphs" textLength="201" x="579" y="655.0669">favorite mark for practical jokes</text><!--MD5=[8139e85bfb68b7ad9dd2c27193a9c168]
reverse link erik to clem--><path d="M631,82.12 C631,103.68 631,130.78 631,153.9 " fill="none" id="erik&lt;-clem" style="stroke: #A80036; stroke-width: 1.0;"/><polygon fill="#A80036" points="631,77.04,627,86.04,631,82.04,635,86.04,631,77.04" style="stroke: #A80036; stroke-width: 1.0;"/><text fill="#000000" font-family="sans-serif" font-size="13" lengthAdjust="spacingAndGlyphs" textLength="68" x="632" y="120.0669">apprentice</text><!--MD5=[6cc53ba1b6f50feb198f8deedcb8654a]
link clem to martin--><path d="M521.52,225.09 C413.89,251.07 256.78,308.78 193,431 C160.53,493.23 199.82,575.85 226.09,619.5 " fill="none" id="clem-martin" style="stroke: #A80036; stroke-width: 1.0;"/><polygon fill="#A80036" points="228.74,623.86,227.4773,614.0924,226.1403,619.589,220.6437,618.252,228.74,623.86" style="stroke: #A80036; stroke-width: 1.0;"/><polygon fill="#A80036" points="526.6,223.87,516.9192,222.0582,521.7354,225.0255,518.7681,229.8417,526.6,223.87" style="stroke: #A80036; stroke-width: 1.0;"/><text fill="#000000" font-family="sans-serif" font-size="13" lengthAdjust="spacingAndGlyphs" textLength="92" x="194" y="444.0669">Foster cousins</text><!--MD5=[b82c0b28999b681290d263cf6afcb15b]
reverse link clem to ulf--><path d="M521.75,211.11 C342.59,223.33 6,260.29 6,365.5 C6,365.5 6,365.5 6,651.5 C6,698.09 39.59,742.69 64.79,769.59 " fill="none" id="clem&lt;-ulf" style="stroke: #A80036; stroke-width: 1.0;"/><polygon fill="#A80036" points="526.74,210.77,517.4874,207.3951,521.7517,211.1121,518.0347,215.3763,526.74,210.77" style="stroke: #A80036; stroke-width: 1.0;"/><text fill="#000000" font-family="sans-serif" font-size="13" lengthAdjust="spacingAndGlyphs" textLength="36" x="7" y="517.0669">Uncle</text><!--MD5=[54fdee65de51acbf18ffc1702e9899ff]
reverse link james to martin--><path d="M373.98,549.02 C354.93,556.93 335.92,566.23 319,577 C299.11,589.66 280.32,608.54 266.79,623.86 " fill="none" id="james&lt;-martin" style="stroke: #A80036; stroke-width: 1.0;"/><polygon fill="#A80036" points="378.83,547.04,368.986,546.7313,374.1995,548.9265,372.0044,554.14,378.83,547.04" style="stroke: #A80036; stroke-width: 1.0;"/><text fill="#000000" font-family="sans-serif" font-size="13" lengthAdjust="spacingAndGlyphs" textLength="117" x="320" y="590.0669">immune to pranks</text><!--MD5=[1e1259a54c78221428d73a3968168f5b]
reverse link martin to dave--><path d="M309.51,679.03 C345.75,693.93 392.33,711.75 435,724 C530.05,751.29 641.98,771.47 716.8,783.31 " fill="none" id="martin&lt;-dave" style="stroke: #A80036; stroke-width: 1.0;"/><polygon fill="#A80036" points="304.69,677.04,311.478,684.176,309.3104,678.9509,314.5355,676.7833,304.69,677.04" style="stroke: #A80036; stroke-width: 1.0;"/><text fill="#000000" font-family="sans-serif" font-size="13" lengthAdjust="spacingAndGlyphs" textLength="97" x="436" y="720.0669">silent confidant</text><!--MD5=[1917d58d3fdcaa4e21e7a7cff14d5ec8]
reverse link james to mittens--><path d="M464.39,551.66 C459.4,559.75 454.64,568.44 451,577 C444.63,591.99 440.41,609.79 437.77,624 " fill="none" id="james&lt;-mittens" style="stroke: #A80036; stroke-width: 1.0;"/><polygon fill="#A80036" points="467.18,547.24,458.9914,552.7124,464.5095,551.4671,465.7548,556.9852,467.18,547.24" style="stroke: #A80036; stroke-width: 1.0;"/><text fill="#000000" font-family="sans-serif" font-size="13" lengthAdjust="spacingAndGlyphs" textLength="102" x="452" y="590.0669">Partner in crime</text><!--MD5=[e5e3fb611a8e7c43f8dacaa7d2420980]
@startuml dnd-thursday-2022

rectangle clem [
**Stig Magnusson**
Simple Farmer
3 Brothers
1 Sister
Leather working apprentice
]

rectangle erik [
**Erik**
Stig's Uncle
Town leatherworker
]

rectangle rob [
**Tempus Meridian**
Town Tinkerer
book worm
]

rectangle phineus [
**Phineus Meridian**
Disgraced Clockmaker
Depressed old man
]

rectangle eva [
**Eva**
Town seamstress
]

rectangle dave [
**Dylan Calix**
Town Hunter
Only Child
Parents killed by Orcs
]

rectangle aronan [
**Aronan**
Town hunter
]

rectangle martin [
**Simon**
Blacksmith's assistant
]

rectangle ulf [
**Ulf**
Town Blacksmith
]

rectangle james [
**Rupert "Bobby" Hook**
Mischievous charming town trickster
Day labor
]

rectangle mittens [
**Mittens**
 That darn cat
]

rectangle igron [
**Igron**
Town elder and cleric
]

rectangle ingrid [
**Ingrid**
]

rectangle valgarun [
**Valgarun the Abysmal**
Pit Fiend
]


james <- - valgarun : spurned patron
igron <- - valgarun : Dark Patron

ingrid <- - ulf : deceased wife

phineus <- - rob  : daughter and caretaker
phineus <- - eva : Ex-wife
clem <- - eva : Step-mom
rob <- - phineus : father
phineus <- - james : destroyer
clem <-> rob : step-siblings
martin <- - rob : has secret crush on
dave <- - rob : using to get closer to Simon

rob <- - eva : mother

dave <- - aronan : Foster father
aronan <- - dave : Apprentice
clem <- - dave : Distrustful because he's cheap

ulv <- - martin : assistant
martin <- - ulf : Foster Father

james <- - clem : vegetable thief
dave <- - james : favorite mark for practical jokes
erik <- - clem: apprentice
clem <-> martin : Foster cousins
clem <- - ulf  : Uncle
james <- - martin : immune to pranks
martin <- - dave : silent confidant

james <- - mittens  : Partner in crime

@enduml

PlantUML version 1.2020.02(Sun Mar 01 05:22:07 EST 2020)
(GPL source distribution)
Java Runtime: OpenJDK Runtime Environment
JVM: OpenJDK 64-Bit Server VM
Java Version: 11.0.15+10-post-Debian-1deb11u1
Operating System: Linux
Default Encoding: UTF-8
Language: en
Country: US
--></g></svg>