<?xml version="1.0" encoding="UTF-8" standalone="no"?><svg xmlns="http://www.w3.org/2000/svg" xmlns:xlink="http://www.w3.org/1999/xlink" contentScriptType="application/ecmascript" contentStyleType="text/css" height="979px" preserveAspectRatio="none" style="width:1236px;height:979px;" version="1.1" viewBox="0 0 1236 979" width="1236px" zoomAndPan="magnify"><defs><filter height="300%" id="fdh2hsy1jecmj" width="300%" x="-1" y="-1"><feGaussianBlur result="blurOut" stdDeviation="2.0"/><feColorMatrix in="blurOut" result="blurOut2" type="matrix" values="0 0 0 0 0 0 0 0 0 0 0 0 0 0 0 0 0 0 .4 0"/><feOffset dx="4.0" dy="4.0" in="blurOut2" result="blurOut3"/><feBlend in="SourceGraphic" in2="blurOut3" mode="normal"/></filter></defs><g><!--MD5=[a7646f0e1420a15693556f033cb7042c]
entity clem--><rect fill="#FEFECE" filter="url(#fdh2hsy1jecmj)" height="101.4844" style="stroke: #000000; stroke-width: 1.5;" width="208" x="289.98" y="284"/><text fill="#000000" font-family="sans-serif" font-size="14" font-weight="bold" lengthAdjust="spacingAndGlyphs" textLength="125" x="299.98" y="306.9951">Stig Magnusson</text><text fill="#000000" font-family="sans-serif" font-size="14" lengthAdjust="spacingAndGlyphs" textLength="98" x="299.98" y="323.292">Simple Farmer</text><text fill="#000000" font-family="sans-serif" font-size="14" lengthAdjust="spacingAndGlyphs" textLength="73" x="299.98" y="339.5889">3 Brothers</text><text fill="#000000" font-family="sans-serif" font-size="14" lengthAdjust="spacingAndGlyphs" textLength="52" x="299.98" y="355.8857">1 Sister</text><text fill="#000000" font-family="sans-serif" font-size="14" lengthAdjust="spacingAndGlyphs" textLength="188" x="299.98" y="372.1826">Leather working apprentice</text><!--MD5=[d3e7b0c013d5d71ff84050da182e2b09]
entity erik--><rect fill="#FEFECE" filter="url(#fdh2hsy1jecmj)" height="68.8906" style="stroke: #000000; stroke-width: 1.5;" width="157" x="339.48" y="462"/><text fill="#000000" font-family="sans-serif" font-size="14" font-weight="bold" lengthAdjust="spacingAndGlyphs" textLength="29" x="349.48" y="484.9951">Erik</text><text fill="#000000" font-family="sans-serif" font-size="14" lengthAdjust="spacingAndGlyphs" textLength="80" x="349.48" y="501.292">Stig's Uncle</text><text fill="#000000" font-family="sans-serif" font-size="14" lengthAdjust="spacingAndGlyphs" textLength="137" x="349.48" y="517.5889">Town leatherworker</text><!--MD5=[659c275dc9a506c39ec972943f7784a1]
entity rob--><rect fill="#FEFECE" filter="url(#fdh2hsy1jecmj)" height="68.8906" style="stroke: #000000; stroke-width: 1.5;" width="155" x="149.48" y="462"/><text fill="#000000" font-family="sans-serif" font-size="14" font-weight="bold" lengthAdjust="spacingAndGlyphs" textLength="135" x="159.48" y="484.9951">Tempus Meridian</text><text fill="#000000" font-family="sans-serif" font-size="14" lengthAdjust="spacingAndGlyphs" textLength="99" x="159.48" y="501.292">Town Tinkerer</text><text fill="#000000" font-family="sans-serif" font-size="14" lengthAdjust="spacingAndGlyphs" textLength="77" x="159.48" y="517.5889">book worm</text><!--MD5=[4a9bbcebd33ee0e075f423d682c1cae8]
entity phineus--><rect fill="#FEFECE" filter="url(#fdh2hsy1jecmj)" height="68.8906" style="stroke: #000000; stroke-width: 1.5;" width="175" x="38.48" y="608"/><text fill="#000000" font-family="sans-serif" font-size="14" font-weight="bold" lengthAdjust="spacingAndGlyphs" textLength="135" x="48.48" y="630.9951">Phineus Meridian</text><text fill="#000000" font-family="sans-serif" font-size="14" lengthAdjust="spacingAndGlyphs" textLength="155" x="48.48" y="647.292">Disgraced Clockmaker</text><text fill="#000000" font-family="sans-serif" font-size="14" lengthAdjust="spacingAndGlyphs" textLength="136" x="48.48" y="663.5889">Depressed old man</text><!--MD5=[6923b14db3ccab23edb44abc59d3c619]
entity eva--><rect fill="#FEFECE" filter="url(#fdh2hsy1jecmj)" height="52.5938" style="stroke: #000000; stroke-width: 1.5;" width="143" x="134.48" y="146"/><text fill="#000000" font-family="sans-serif" font-size="14" font-weight="bold" lengthAdjust="spacingAndGlyphs" textLength="27" x="144.48" y="168.9951">Eva</text><text fill="#000000" font-family="sans-serif" font-size="14" lengthAdjust="spacingAndGlyphs" textLength="123" x="144.48" y="185.292">Town seamstress</text><!--MD5=[8ad1ebb61c3fda0062e1bce3f9f93137]
entity dave--><rect fill="#FEFECE" filter="url(#fdh2hsy1jecmj)" height="85.1875" style="stroke: #000000; stroke-width: 1.5;" width="168" x="580.98" y="754"/><text fill="#000000" font-family="sans-serif" font-size="14" font-weight="bold" lengthAdjust="spacingAndGlyphs" textLength="85" x="590.98" y="776.9951">Dylan Calix</text><text fill="#000000" font-family="sans-serif" font-size="14" lengthAdjust="spacingAndGlyphs" textLength="89" x="590.98" y="793.292">Town Hunter</text><text fill="#000000" font-family="sans-serif" font-size="14" lengthAdjust="spacingAndGlyphs" textLength="68" x="590.98" y="809.5889">Only Child</text><text fill="#000000" font-family="sans-serif" font-size="14" lengthAdjust="spacingAndGlyphs" textLength="148" x="590.98" y="825.8857">Parents killed by Orcs</text><!--MD5=[e4c8e99405d3468cc762edcb1e100b2a]
entity aronan--><rect fill="#FEFECE" filter="url(#fdh2hsy1jecmj)" height="52.5938" style="stroke: #000000; stroke-width: 1.5;" width="108" x="609.98" y="916"/><text fill="#000000" font-family="sans-serif" font-size="14" font-weight="bold" lengthAdjust="spacingAndGlyphs" textLength="57" x="619.98" y="938.9951">Aronan</text><text fill="#000000" font-family="sans-serif" font-size="14" lengthAdjust="spacingAndGlyphs" textLength="88" x="619.98" y="955.292">Town hunter</text><!--MD5=[d1982080363b8351504a29dbc505e3fb]
entity martin--><rect fill="#FEFECE" filter="url(#fdh2hsy1jecmj)" height="52.5938" style="stroke: #000000; stroke-width: 1.5;" width="172" x="287.98" y="616"/><text fill="#000000" font-family="sans-serif" font-size="14" font-weight="bold" lengthAdjust="spacingAndGlyphs" textLength="48" x="297.98" y="638.9951">Simon</text><text fill="#000000" font-family="sans-serif" font-size="14" lengthAdjust="spacingAndGlyphs" textLength="152" x="297.98" y="655.292">Blacksmith's assistant</text><!--MD5=[9e57aa5f7410d9462fd929edb1c5ae02]
entity ulf--><rect fill="#FEFECE" filter="url(#fdh2hsy1jecmj)" height="52.5938" style="stroke: #000000; stroke-width: 1.5;" width="137" x="130.48" y="770"/><text fill="#000000" font-family="sans-serif" font-size="14" font-weight="bold" lengthAdjust="spacingAndGlyphs" textLength="21" x="140.48" y="792.9951">Ulf</text><text fill="#000000" font-family="sans-serif" font-size="14" lengthAdjust="spacingAndGlyphs" textLength="117" x="140.48" y="809.292">Town Blacksmith</text><!--MD5=[e7b279934d7ffe2df6ca63249ca8422c]
entity james--><rect fill="#FEFECE" filter="url(#fdh2hsy1jecmj)" height="68.8906" style="stroke: #000000; stroke-width: 1.5;" width="271" x="651.48" y="138"/><text fill="#000000" font-family="sans-serif" font-size="14" font-weight="bold" lengthAdjust="spacingAndGlyphs" textLength="166" x="661.48" y="160.9951">Rupert "Bobby" Hook</text><text fill="#000000" font-family="sans-serif" font-size="14" lengthAdjust="spacingAndGlyphs" textLength="251" x="661.48" y="177.292">Mischievous charming town trickster</text><text fill="#000000" font-family="sans-serif" font-size="14" lengthAdjust="spacingAndGlyphs" textLength="64" x="661.48" y="193.5889">Day labor</text><!--MD5=[31eff58ec5754c6f120006abc72f2732]
entity mittens--><rect fill="#FEFECE" filter="url(#fdh2hsy1jecmj)" height="52.5938" style="stroke: #000000; stroke-width: 1.5;" width="111" x="731.48" y="8"/><text fill="#000000" font-family="sans-serif" font-size="14" font-weight="bold" lengthAdjust="spacingAndGlyphs" textLength="58" x="741.48" y="30.9951">Mittens</text><text fill="#000000" font-family="sans-serif" font-size="14" lengthAdjust="spacingAndGlyphs" textLength="91" x="741.48" y="47.292">That darn cat</text><!--MD5=[e6d0a6cb09329b53c769920b7683ced2]
entity igron--><rect fill="#FEFECE" filter="url(#fdh2hsy1jecmj)" height="52.5938" style="stroke: #000000; stroke-width: 1.5;" width="167" x="449.48" y="146"/><text fill="#000000" font-family="sans-serif" font-size="14" font-weight="bold" lengthAdjust="spacingAndGlyphs" textLength="41" x="459.48" y="168.9951">Igron</text><text fill="#000000" font-family="sans-serif" font-size="14" lengthAdjust="spacingAndGlyphs" textLength="147" x="459.48" y="185.292">Town elder and cleric</text><!--MD5=[25eb2249843df658be56ba45a45892d8]
entity ingrid--><rect fill="#FEFECE" filter="url(#fdh2hsy1jecmj)" height="36.2969" style="stroke: #000000; stroke-width: 1.5;" width="65" x="166.48" y="924.5"/><text fill="#000000" font-family="sans-serif" font-size="14" font-weight="bold" lengthAdjust="spacingAndGlyphs" textLength="45" x="176.48" y="947.4951">Ingrid</text><!--MD5=[0123d95d86118913b0453c7f6b27e6f4]
entity valgarun--><rect fill="#FEFECE" filter="url(#fdh2hsy1jecmj)" height="52.5938" style="stroke: #000000; stroke-width: 1.5;" width="192" x="532.98" y="308"/><text fill="#000000" font-family="sans-serif" font-size="14" font-weight="bold" lengthAdjust="spacingAndGlyphs" textLength="172" x="542.98" y="330.9951">Valgarun the Abysmal</text><text fill="#000000" font-family="sans-serif" font-size="14" lengthAdjust="spacingAndGlyphs" textLength="59" x="542.98" y="347.292">Pit Fiend</text><!--MD5=[f4b314648a54468c45b6523cb0222ebf]
reverse link james to valgarun--><path d="M683.27,209.87 C671.5,217.39 660.64,226.35 651.98,237 C635.68,257.05 630.59,286.73 629.16,307.88 " fill="none" id="james&lt;-valgarun" style="stroke: #A80036; stroke-width: 1.0;"/><polygon fill="#A80036" points="687.65,207.17,677.8927,208.5095,683.3996,209.8033,682.1059,215.3102,687.65,207.17" style="stroke: #A80036; stroke-width: 1.0;"/><text fill="#000000" font-family="sans-serif" font-size="13" lengthAdjust="spacingAndGlyphs" textLength="98" x="652.98" y="250.0669">spurned patron</text><!--MD5=[8b41ad82ea833bec823d4677beff0322]
reverse link igron to valgarun--><path d="M525.84,204.2 C523.75,219.82 523.69,238.69 530.98,254 C541.67,276.45 562.15,294.62 581.63,307.89 " fill="none" id="igron&lt;-valgarun" style="stroke: #A80036; stroke-width: 1.0;"/><polygon fill="#A80036" points="526.62,199.03,521.3304,207.3378,525.879,203.9748,529.242,208.5234,526.62,199.03" style="stroke: #A80036; stroke-width: 1.0;"/><text fill="#000000" font-family="sans-serif" font-size="13" lengthAdjust="spacingAndGlyphs" textLength="76" x="531.98" y="250.0669">Dark Patron</text><!--MD5=[4ee3cc7bb8994f382c090a018504639b]
link ulf to ingrid--><path d="M198.98,823.24 C198.98,850.43 198.98,892.88 198.98,918.84 " fill="none" id="ulf-&gt;ingrid" style="stroke: #A80036; stroke-width: 1.0;"/><polygon fill="#A80036" points="198.98,924.12,202.98,915.12,198.98,919.12,194.98,915.12,198.98,924.12" style="stroke: #A80036; stroke-width: 1.0;"/><text fill="#000000" font-family="sans-serif" font-size="13" lengthAdjust="spacingAndGlyphs" textLength="90" x="199.98" y="882.0669">deceased wife</text><!--MD5=[891771313fe44574a91eb7f51193deec]
link rob to phineus--><path d="M149.1,522.37 C118.52,533.84 88.65,547.82 79.98,561 C71.09,574.53 76.28,589.86 85.87,603.48 " fill="none" id="rob-&gt;phineus" style="stroke: #A80036; stroke-width: 1.0;"/><polygon fill="#A80036" points="88.98,607.65,86.802,598.045,85.9892,603.6431,80.391,602.8303,88.98,607.65" style="stroke: #A80036; stroke-width: 1.0;"/><text fill="#000000" font-family="sans-serif" font-size="13" lengthAdjust="spacingAndGlyphs" textLength="151" x="80.98" y="574.0669">daughter and caretaker</text><!--MD5=[004254cf38b16be3efd0e33641c07292]
link phineus to rob--><path d="M208.7,607.88 C220,599.77 230.07,589.91 236.98,578 C244.22,565.52 244.06,550.14 241.27,536.18 " fill="none" id="phineus-&gt;rob" style="stroke: #A80036; stroke-width: 1.0;"/><polygon fill="#A80036" points="240.13,531.11,238.1776,540.7634,241.2147,535.9909,245.9871,539.028,240.13,531.11" style="stroke: #A80036; stroke-width: 1.0;"/><text fill="#000000" font-family="sans-serif" font-size="13" lengthAdjust="spacingAndGlyphs" textLength="38" x="243.98" y="574.0669">father</text><!--MD5=[a9f0acab2433779ace43bfcdb8194c69]
link eva to phineus--><path d="M193.21,199.43 C163.91,260.55 92.47,419.2 67.98,561 C66.69,568.45 65.25,570.96 67.98,578 C71.53,587.16 77.09,595.81 83.39,603.6 " fill="none" id="eva-&gt;phineus" style="stroke: #A80036; stroke-width: 1.0;"/><polygon fill="#A80036" points="86.96,607.84,84.2366,598.3752,83.745,604.0106,78.1096,603.5191,86.96,607.84" style="stroke: #A80036; stroke-width: 1.0;"/><text fill="#000000" font-family="sans-serif" font-size="13" lengthAdjust="spacingAndGlyphs" textLength="44" x="105.98" y="428.0669">Ex-wife</text><!--MD5=[4a67fbe963abeb6c849e6383f57e7f1f]
link eva to clem--><path d="M227.38,199.1 C241.75,215.6 261.54,237.06 280.98,254 C291.45,263.12 302.96,272.19 314.51,280.75 " fill="none" id="eva-&gt;clem" style="stroke: #A80036; stroke-width: 1.0;"/><polygon fill="#A80036" points="318.76,283.88,313.8718,275.3299,314.7293,280.9213,309.1379,281.7789,318.76,283.88" style="stroke: #A80036; stroke-width: 1.0;"/><text fill="#000000" font-family="sans-serif" font-size="13" lengthAdjust="spacingAndGlyphs" textLength="69" x="281.98" y="250.0669">Step-mom</text><!--MD5=[5df8cf7523b3ed79b41fd0484374ac9d]
link james to phineus--><path d="M784.79,207.25 C780.93,250.32 770.51,326.25 742.98,385 C707.81,460.04 696.6,486.04 626.98,531 C490.63,619.06 429.02,575.57 269.98,608 C253.45,611.37 235.93,615.22 219,619.07 " fill="none" id="james-&gt;phineus" style="stroke: #A80036; stroke-width: 1.0;"/><polygon fill="#A80036" points="213.77,620.27,223.4353,622.1625,218.6441,619.1551,221.6515,614.3639,213.77,620.27" style="stroke: #A80036; stroke-width: 1.0;"/><text fill="#000000" font-family="sans-serif" font-size="13" lengthAdjust="spacingAndGlyphs" textLength="61" x="728.98" y="428.0669">destroyer</text><!--MD5=[0750419b1b1f9bcda5c7d85c3426d42b]
link clem to rob--><path d="M338.36,388.79 C314.52,411.63 287.24,437.76 265.65,458.45 " fill="none" id="clem-rob" style="stroke: #A80036; stroke-width: 1.0;"/><polygon fill="#A80036" points="261.96,461.98,271.2287,458.6496,265.5732,458.5239,265.6989,452.8684,261.96,461.98" style="stroke: #A80036; stroke-width: 1.0;"/><polygon fill="#A80036" points="342.05,385.25,332.7882,388.5995,338.4439,388.7135,338.3299,394.3693,342.05,385.25" style="stroke: #A80036; stroke-width: 1.0;"/><text fill="#000000" font-family="sans-serif" font-size="13" lengthAdjust="spacingAndGlyphs" textLength="80" x="311.98" y="428.0669">step-siblings</text><!--MD5=[0fcd43c14943f825f26468731ba97716]
link rob to martin--><path d="M261.44,531.26 C286.42,555.72 319.85,588.48 343.78,611.92 " fill="none" id="rob-&gt;martin" style="stroke: #A80036; stroke-width: 1.0;"/><polygon fill="#A80036" points="347.54,615.6,343.9118,606.4438,343.9689,612.1004,338.3124,612.1575,347.54,615.6" style="stroke: #A80036; stroke-width: 1.0;"/><text fill="#000000" font-family="sans-serif" font-size="13" lengthAdjust="spacingAndGlyphs" textLength="126" x="305.98" y="574.0669">has secret crush on</text><!--MD5=[06e89cf783324e7b3abb3179988513a5]
link rob to dave--><path d="M304.55,525.51 C310.43,527.43 316.29,529.28 321.98,531 C374.2,546.75 393.85,533.54 440.98,561 C484.06,586.1 574.74,688.71 626.55,749.57 " fill="none" id="rob-&gt;dave" style="stroke: #A80036; stroke-width: 1.0;"/><polygon fill="#A80036" points="629.9,753.52,627.1179,744.0723,626.6613,749.7107,621.0229,749.2541,629.9,753.52" style="stroke: #A80036; stroke-width: 1.0;"/><text fill="#000000" font-family="sans-serif" font-size="13" lengthAdjust="spacingAndGlyphs" textLength="180" x="560.98" y="647.0669">using to get closer to Simon</text><!--MD5=[1f0cb49f7495c4639d1a10a767ca0950]
link eva to rob--><path d="M207.64,199.04 C211.31,255.29 220.11,390.16 224.46,456.84 " fill="none" id="eva-&gt;rob" style="stroke: #A80036; stroke-width: 1.0;"/><polygon fill="#A80036" points="224.79,461.91,228.1895,452.6664,224.4612,456.9208,220.2068,453.1925,224.79,461.91" style="stroke: #A80036; stroke-width: 1.0;"/><text fill="#000000" font-family="sans-serif" font-size="13" lengthAdjust="spacingAndGlyphs" textLength="47" x="220.98" y="339.0669">mother</text><!--MD5=[0458091c6aab18a40db828df40ec4810]
link aronan to dave--><path d="M673.56,915.89 C676.57,906.61 679.49,895.97 680.98,886 C683,872.5 681.78,857.91 679.29,844.54 " fill="none" id="aronan-&gt;dave" style="stroke: #A80036; stroke-width: 1.0;"/><polygon fill="#A80036" points="678.23,839.28,676.0835,848.8921,679.2161,844.1818,683.9264,847.3144,678.23,839.28" style="stroke: #A80036; stroke-width: 1.0;"/><text fill="#000000" font-family="sans-serif" font-size="13" lengthAdjust="spacingAndGlyphs" textLength="82" x="682.98" y="882.0669">Foster father</text><!--MD5=[ee0ec28273c31a510d38884d7a4ce7ee]
link dave to aronan--><path d="M619.7,839.12 C612.45,848.2 606.01,858.32 601.98,869 C595.83,885.29 605.18,900.42 618.34,912.61 " fill="none" id="dave-&gt;aronan" style="stroke: #A80036; stroke-width: 1.0;"/><polygon fill="#A80036" points="622.15,915.96,618.0468,907.0066,618.4004,912.6524,612.7546,913.0059,622.15,915.96" style="stroke: #A80036; stroke-width: 1.0;"/><text fill="#000000" font-family="sans-serif" font-size="13" lengthAdjust="spacingAndGlyphs" textLength="69" x="602.98" y="882.0669">Apprentice</text><!--MD5=[82ef317be3310819b29abc7e43d8702e]
link dave to clem--><path d="M704.7,753.84 C722.22,732.61 740.87,705.32 749.98,677 C759.37,647.81 760.5,636.81 749.98,608 C709.46,497.03 591.84,421.85 502.79,379.04 " fill="none" id="dave-&gt;clem" style="stroke: #A80036; stroke-width: 1.0;"/><polygon fill="#A80036" points="498.04,376.77,504.4359,384.2595,502.5514,378.9258,507.8851,377.0413,498.04,376.77" style="stroke: #A80036; stroke-width: 1.0;"/><text fill="#000000" font-family="sans-serif" font-size="13" lengthAdjust="spacingAndGlyphs" textLength="196" x="735.98" y="574.0669">Distrustful because he's cheap</text><!--MD5=[d5fafc796b1e1733d8525cd68a1678c2]
link martin to ulf--><path d="M346.96,669.34 C329.99,685.36 307.5,706.2 286.98,724 C270.39,738.39 251.55,753.81 235.57,766.64 " fill="none" id="martin-&gt;ulf" style="stroke: #A80036; stroke-width: 1.0;"/><polygon fill="#A80036" points="231.57,769.84,241.0932,767.3285,235.4702,766.7113,236.0873,761.0882,231.57,769.84" style="stroke: #A80036; stroke-width: 1.0;"/><text fill="#000000" font-family="sans-serif" font-size="13" lengthAdjust="spacingAndGlyphs" textLength="58" x="305.98" y="720.0669">assistant</text><!--MD5=[b2c4e908f33b40dd25288fec87276546]
link ulf to martin--><path d="M188.75,769.89 C182.95,750.83 179.13,725.09 191.98,707 C203.48,690.81 243.43,675.98 282.98,664.74 " fill="none" id="ulf-&gt;martin" style="stroke: #A80036; stroke-width: 1.0;"/><polygon fill="#A80036" points="287.8,663.38,278.0523,661.972,282.9876,664.7366,280.2229,669.6719,287.8,663.38" style="stroke: #A80036; stroke-width: 1.0;"/><text fill="#000000" font-family="sans-serif" font-size="13" lengthAdjust="spacingAndGlyphs" textLength="85" x="192.98" y="720.0669">Foster Father</text><!--MD5=[745eb2b404c57dfd5ef74492bb7ad840]
reverse link james to clem--><path d="M645.97,204.79 C641.94,205.55 637.93,206.29 633.98,207 C586.93,215.45 456.95,205.52 420.98,237 C407.5,248.8 400.49,266.73 396.94,283.94 " fill="none" id="james&lt;-clem" style="stroke: #A80036; stroke-width: 1.0;"/><polygon fill="#A80036" points="651.11,203.81,641.5226,201.5557,646.1974,204.741,643.0121,209.4158,651.11,203.81" style="stroke: #A80036; stroke-width: 1.0;"/><text fill="#000000" font-family="sans-serif" font-size="13" lengthAdjust="spacingAndGlyphs" textLength="95" x="421.98" y="250.0669">vegetable thief</text><!--MD5=[a6127355a502a6aca359e0a5e56e6cab]
link james to dave--><path d="M907.74,207.12 C965.81,231.39 1022.98,271.13 1022.98,333.5 C1022.98,333.5 1022.98,333.5 1022.98,643.5 C1022.98,759.98 860.41,788.5 754.37,794.71 " fill="none" id="james-&gt;dave" style="stroke: #A80036; stroke-width: 1.0;"/><polygon fill="#A80036" points="749.37,794.99,758.5841,798.4685,754.3618,794.7039,758.1264,790.4816,749.37,794.99" style="stroke: #A80036; stroke-width: 1.0;"/><text fill="#000000" font-family="sans-serif" font-size="13" lengthAdjust="spacingAndGlyphs" textLength="201" x="1023.98" y="501.0669">favorite mark for practical jokes</text><!--MD5=[1681621869249ed3687d274606336215]
link clem to erik--><path d="M401.44,385.25 C404.91,408.35 408.96,435.39 412.19,456.92 " fill="none" id="clem-&gt;erik" style="stroke: #A80036; stroke-width: 1.0;"/><polygon fill="#A80036" points="412.95,461.98,415.568,452.4855,412.2069,457.0355,407.6568,453.6744,412.95,461.98" style="stroke: #A80036; stroke-width: 1.0;"/><text fill="#000000" font-family="sans-serif" font-size="13" lengthAdjust="spacingAndGlyphs" textLength="68" x="409.98" y="428.0669">apprentice</text><!--MD5=[6cc53ba1b6f50feb198f8deedcb8654a]
link clem to martin--><path d="M462.09,388.88 C470.94,397.17 479.5,405.99 486.98,415 C520.77,455.74 537.07,483.37 513.98,531 C496.6,566.85 461.33,594.58 430.53,613.29 " fill="none" id="clem-martin" style="stroke: #A80036; stroke-width: 1.0;"/><polygon fill="#A80036" points="426.02,615.99,435.7983,614.8135,430.3138,613.4281,431.6992,607.9435,426.02,615.99" style="stroke: #A80036; stroke-width: 1.0;"/><polygon fill="#A80036" points="458.29,385.36,462.1755,394.41,461.9585,388.7573,467.6112,388.5404,458.29,385.36" style="stroke: #A80036; stroke-width: 1.0;"/><text fill="#000000" font-family="sans-serif" font-size="13" lengthAdjust="spacingAndGlyphs" textLength="92" x="525.98" y="501.0669">Foster cousins</text><!--MD5=[fa376a19b74bd2a770e71a8ac7dc754b]
link ulf to clem--><path d="M131.34,769.86 C91.43,750.81 44.29,720.53 20.98,677 C-3.44,631.42 5.43,606.51 29.98,561 C59.98,505.4 80.2,498.2 131.98,462 C158.81,443.24 225.64,411.05 285.09,383.83 " fill="none" id="ulf-&gt;clem" style="stroke: #A80036; stroke-width: 1.0;"/><polygon fill="#A80036" points="289.72,381.72,279.8717,381.8283,285.1736,383.8008,283.201,389.1026,289.72,381.72" style="stroke: #A80036; stroke-width: 1.0;"/><text fill="#000000" font-family="sans-serif" font-size="13" lengthAdjust="spacingAndGlyphs" textLength="36" x="30.98" y="574.0669">Uncle</text><!--MD5=[7d735c417540fa92331f755c9a4d8cd4]
link james to martin--><path d="M803.85,207.02 C837.24,278.62 901.1,446.81 810.98,531 C784.18,556.04 525.44,598.63 489.98,608 C481.92,610.13 473.57,612.4 465.21,614.73 " fill="none" id="james-&gt;martin" style="stroke: #A80036; stroke-width: 1.0;"/><polygon fill="#A80036" points="460.01,616.18,469.7538,617.6148,464.8262,614.8366,467.6044,609.909,460.01,616.18" style="stroke: #A80036; stroke-width: 1.0;"/><text fill="#000000" font-family="sans-serif" font-size="13" lengthAdjust="spacingAndGlyphs" textLength="117" x="857.98" y="428.0669">immune to pranks</text><!--MD5=[1e1259a54c78221428d73a3968168f5b]
reverse link martin to dave--><path d="M385.86,673.82 C393.96,690.83 406.26,711.14 422.98,724 C468.47,758.99 530.77,776.89 580.77,786.03 " fill="none" id="martin&lt;-dave" style="stroke: #A80036; stroke-width: 1.0;"/><polygon fill="#A80036" points="383.69,669.12,383.8356,678.9678,385.788,673.6585,391.0972,675.611,383.69,669.12" style="stroke: #A80036; stroke-width: 1.0;"/><text fill="#000000" font-family="sans-serif" font-size="13" lengthAdjust="spacingAndGlyphs" textLength="97" x="423.98" y="720.0669">silent confidant</text><!--MD5=[363bed1e3248ac61f5040def40477899]
link mittens to james--><path d="M786.98,61.08 C786.98,81.25 786.98,109.72 786.98,132.7 " fill="none" id="mittens-&gt;james" style="stroke: #A80036; stroke-width: 1.0;"/><polygon fill="#A80036" points="786.98,137.81,790.98,128.81,786.98,132.81,782.98,128.81,786.98,137.81" style="stroke: #A80036; stroke-width: 1.0;"/><text fill="#000000" font-family="sans-serif" font-size="13" lengthAdjust="spacingAndGlyphs" textLength="102" x="787.98" y="104.0669">Partner in crime</text><!--MD5=[a96cae6df133ecf85c3ae86e993fb54b]
@startuml dnd-thursday-2022

rectangle clem [
**Stig Magnusson**
Simple Farmer
3 Brothers
1 Sister
Leather working apprentice
]

rectangle erik [
**Erik**
Stig's Uncle
Town leatherworker
]

rectangle rob [
**Tempus Meridian**
Town Tinkerer
book worm
]

rectangle phineus [
**Phineus Meridian**
Disgraced Clockmaker
Depressed old man
]

rectangle eva [
**Eva**
Town seamstress
]

rectangle dave [
**Dylan Calix**
Town Hunter
Only Child
Parents killed by Orcs
]

rectangle aronan [
**Aronan**
Town hunter
]

rectangle martin [
**Simon**
Blacksmith's assistant
]

rectangle ulf [
**Ulf**
Town Blacksmith
]

rectangle james [
**Rupert "Bobby" Hook**
Mischievous charming town trickster
Day labor
]

rectangle mittens [
**Mittens**
 That darn cat
]

rectangle igron [
**Igron**
Town elder and cleric
]

rectangle ingrid [
**Ingrid**
]

rectangle valgarun [
**Valgarun the Abysmal**
Pit Fiend
]


james <- - valgarun : spurned patron
igron <- - valgarun : Dark Patron

ulf - -> ingrid : deceased wife

rob - -> phineus : daughter and caretaker
eva - -> phineus : Ex-wife
eva - -> clem : Step-mom
phineus - -> rob : father
james - -> phineus : destroyer
clem <- -> rob : step-siblings
rob - -> martin : has secret crush on
rob - -> dave : using to get closer to Simon

eva - -> rob : mother

aronan - -> dave : Foster father
dave - -> aronan : Apprentice
dave - -> clem : Distrustful because he's cheap

martin - -> ulf : assistant
ulf - -> martin : Foster Father

james <- - clem : vegetable thief
james - -> dave : favorite mark for practical jokes
clem - -> erik: apprentice
clem <- -> martin : Foster cousins
ulf - -> clem : Uncle
james - -> martin : immune to pranks
martin <- - dave : silent confidant

mittens - -> james : Partner in crime

@enduml

PlantUML version 1.2020.02(Sun Mar 01 05:22:07 EST 2020)
(GPL source distribution)
Java Runtime: OpenJDK Runtime Environment
JVM: OpenJDK 64-Bit Server VM
Java Version: 11.0.15+10-post-Debian-1deb11u1
Operating System: Linux
Default Encoding: UTF-8
Language: en
Country: US
--></g></svg>