<?xml version="1.0" encoding="UTF-8" standalone="no"?><svg xmlns="http://www.w3.org/2000/svg" xmlns:xlink="http://www.w3.org/1999/xlink" contentScriptType="application/ecmascript" contentStyleType="text/css" height="335px" preserveAspectRatio="none" style="width:891px;height:335px;" version="1.1" viewBox="0 0 891 335" width="891px" zoomAndPan="magnify"><defs><filter height="300%" id="fi6f2dut6d74p" width="300%" x="-1" y="-1"><feGaussianBlur result="blurOut" stdDeviation="2.0"/><feColorMatrix in="blurOut" result="blurOut2" type="matrix" values="0 0 0 0 0 0 0 0 0 0 0 0 0 0 0 0 0 0 .4 0"/><feOffset dx="4.0" dy="4.0" in="blurOut2" result="blurOut3"/><feBlend in="SourceGraphic" in2="blurOut3" mode="normal"/></filter></defs><g><!--MD5=[ad334b818a614b221d9c6827645510ff]
entity kitt--><rect fill="#FEFECE" filter="url(#fi6f2dut6d74p)" height="111.4844" style="stroke: #A80036; stroke-width: 1.5;" width="214" x="666" y="213"/><rect fill="#FEFECE" height="10" style="stroke: #A80036; stroke-width: 1.5;" width="15" x="860" y="218"/><rect fill="#FEFECE" height="2" style="stroke: #A80036; stroke-width: 1.5;" width="4" x="858" y="220"/><rect fill="#FEFECE" height="2" style="stroke: #A80036; stroke-width: 1.5;" width="4" x="858" y="224"/><text fill="#000000" font-family="sans-serif" font-size="14" lengthAdjust="spacingAndGlyphs" textLength="70" x="681" y="245.9951">Kitt Rocko</text><text fill="#000000" font-family="sans-serif" font-size="14" lengthAdjust="spacingAndGlyphs" textLength="102" x="681" y="262.292">Nautolan Slicer</text><text fill="#000000" font-family="sans-serif" font-size="14" lengthAdjust="spacingAndGlyphs" textLength="96" x="681" y="278.5889">Ship Engineer</text><text fill="#000000" font-family="sans-serif" font-size="14" lengthAdjust="spacingAndGlyphs" textLength="126" x="681" y="294.8857">Fun Loving Hacker</text><text fill="#000000" font-family="sans-serif" font-size="14" lengthAdjust="spacingAndGlyphs" textLength="174" x="681" y="311.1826">Homeworld: Glee Anselm</text><!--MD5=[e9e6e60c24b235a1a30089b43f06d818]
entity rowan--><rect fill="#FEFECE" filter="url(#fi6f2dut6d74p)" height="95.1875" style="stroke: #A80036; stroke-width: 1.5;" width="204" x="6" y="221"/><rect fill="#FEFECE" height="10" style="stroke: #A80036; stroke-width: 1.5;" width="15" x="190" y="226"/><rect fill="#FEFECE" height="2" style="stroke: #A80036; stroke-width: 1.5;" width="4" x="188" y="228"/><rect fill="#FEFECE" height="2" style="stroke: #A80036; stroke-width: 1.5;" width="4" x="188" y="232"/><text fill="#000000" font-family="sans-serif" font-size="14" lengthAdjust="spacingAndGlyphs" textLength="134" x="21" y="253.9951">Rowan Cloudcaster</text><text fill="#000000" font-family="sans-serif" font-size="14" lengthAdjust="spacingAndGlyphs" textLength="82" x="21" y="270.292">Human Pilot</text><text fill="#000000" font-family="sans-serif" font-size="14" lengthAdjust="spacingAndGlyphs" textLength="64" x="21" y="286.5889">Wild Card</text><text fill="#000000" font-family="sans-serif" font-size="14" lengthAdjust="spacingAndGlyphs" textLength="164" x="21" y="302.8857">Homeworld: Bovoyogan</text><!--MD5=[cd056189258382b969e467bc2ae7e35a]
entity hess--><rect fill="#FEFECE" filter="url(#fi6f2dut6d74p)" height="127.7813" style="stroke: #A80036; stroke-width: 1.5;" width="221" x="528.5" y="8"/><rect fill="#FEFECE" height="10" style="stroke: #A80036; stroke-width: 1.5;" width="15" x="729.5" y="13"/><rect fill="#FEFECE" height="2" style="stroke: #A80036; stroke-width: 1.5;" width="4" x="727.5" y="15"/><rect fill="#FEFECE" height="2" style="stroke: #A80036; stroke-width: 1.5;" width="4" x="727.5" y="19"/><text fill="#000000" font-family="sans-serif" font-size="14" lengthAdjust="spacingAndGlyphs" textLength="91" x="543.5" y="40.9951">Hess Ruutizz</text><text fill="#000000" font-family="sans-serif" font-size="14" lengthAdjust="spacingAndGlyphs" textLength="116" x="543.5" y="57.292">Kel Dor Padawan</text><text fill="#000000" font-family="sans-serif" font-size="14" lengthAdjust="spacingAndGlyphs" textLength="138" x="543.5" y="73.5889">Order of the Dragon</text><text fill="#000000" font-family="sans-serif" font-size="14" lengthAdjust="spacingAndGlyphs" textLength="86" x="543.5" y="89.8857">Ship Gunner</text><text fill="#000000" font-family="sans-serif" font-size="14" lengthAdjust="spacingAndGlyphs" textLength="107" x="543.5" y="106.1826">Mystical Muscle</text><text fill="#000000" font-family="sans-serif" font-size="14" lengthAdjust="spacingAndGlyphs" textLength="181" x="543.5" y="122.4795">Homeworld: New Alderaan</text><!--MD5=[5a06373641f2daca9450f450833a970b]
entity tarei--><rect fill="#FEFECE" filter="url(#fi6f2dut6d74p)" height="95.1875" style="stroke: #A80036; stroke-width: 1.5;" width="242" x="389" y="221"/><rect fill="#FEFECE" height="10" style="stroke: #A80036; stroke-width: 1.5;" width="15" x="611" y="226"/><rect fill="#FEFECE" height="2" style="stroke: #A80036; stroke-width: 1.5;" width="4" x="609" y="228"/><rect fill="#FEFECE" height="2" style="stroke: #A80036; stroke-width: 1.5;" width="4" x="609" y="232"/><text fill="#000000" font-family="sans-serif" font-size="14" lengthAdjust="spacingAndGlyphs" textLength="81" x="404" y="253.9951">Tarei Vosek</text><text fill="#000000" font-family="sans-serif" font-size="14" lengthAdjust="spacingAndGlyphs" textLength="202" x="404" y="270.292">Munn Banking Clan Aristocrat</text><text fill="#000000" font-family="sans-serif" font-size="14" lengthAdjust="spacingAndGlyphs" textLength="119" x="404" y="286.5889">Ship Commander</text><text fill="#000000" font-family="sans-serif" font-size="14" lengthAdjust="spacingAndGlyphs" textLength="128" x="404" y="302.8857">Homeworld: Scipio</text><!--MD5=[e6001af16d4774e0fdad2715570119d9]
entity master--><rect fill="#FEFECE" filter="url(#fi6f2dut6d74p)" height="95.1875" style="stroke: #A80036; stroke-width: 1.5;" width="221" x="213.5" y="24.5"/><rect fill="#FEFECE" height="10" style="stroke: #A80036; stroke-width: 1.5;" width="15" x="414.5" y="29.5"/><rect fill="#FEFECE" height="2" style="stroke: #A80036; stroke-width: 1.5;" width="4" x="412.5" y="31.5"/><rect fill="#FEFECE" height="2" style="stroke: #A80036; stroke-width: 1.5;" width="4" x="412.5" y="35.5"/><text fill="#000000" font-family="sans-serif" font-size="14" lengthAdjust="spacingAndGlyphs" textLength="102" x="228.5" y="57.4951">Master Satechi</text><text fill="#000000" font-family="sans-serif" font-size="14" lengthAdjust="spacingAndGlyphs" textLength="77" x="228.5" y="73.792">Human Jedi</text><text fill="#000000" font-family="sans-serif" font-size="14" lengthAdjust="spacingAndGlyphs" textLength="85" x="228.5" y="90.0889">Stoic Master</text><text fill="#000000" font-family="sans-serif" font-size="14" lengthAdjust="spacingAndGlyphs" textLength="181" x="228.5" y="106.3857">Homeworld: New Alderaan</text><!--MD5=[93913355ca7a2f1ee95ef48a26e0c04c]
entity carnet--><rect fill="#FEFECE" filter="url(#fi6f2dut6d74p)" height="78.8906" style="stroke: #A80036; stroke-width: 1.5;" width="141" x="37.5" y="32.5"/><rect fill="#FEFECE" height="10" style="stroke: #A80036; stroke-width: 1.5;" width="15" x="158.5" y="37.5"/><rect fill="#FEFECE" height="2" style="stroke: #A80036; stroke-width: 1.5;" width="4" x="156.5" y="39.5"/><rect fill="#FEFECE" height="2" style="stroke: #A80036; stroke-width: 1.5;" width="4" x="156.5" y="43.5"/><text fill="#000000" font-family="sans-serif" font-size="14" lengthAdjust="spacingAndGlyphs" textLength="101" x="52.5" y="65.4951">Carnet Kaserin</text><text fill="#000000" font-family="sans-serif" font-size="14" lengthAdjust="spacingAndGlyphs" textLength="82" x="52.5" y="81.792">Human pilot</text><text fill="#000000" font-family="sans-serif" font-size="14" lengthAdjust="spacingAndGlyphs" textLength="69" x="52.5" y="98.0889">deceased</text><!--MD5=[b0b81d223c1fbd04f1a021813e1b0291]
reverse link carnet to rowan--><path d="M108,117.15 C108,148.07 108,189.32 108,220.79 " fill="none" id="carnet&lt;-rowan" style="stroke: #A80036; stroke-width: 1.0;"/><polygon fill="#A80036" points="108,111.89,104,120.89,108,116.89,112,120.89,108,111.89" style="stroke: #A80036; stroke-width: 1.0;"/><text fill="#000000" font-family="sans-serif" font-size="13" lengthAdjust="spacingAndGlyphs" textLength="77" x="109" y="179.0669">former boss</text><!--MD5=[6952c572adda1bcac483d5eab17d70c4]
link rowan to kitt--><path d="M215.17,228.84 C270.92,210.29 340.7,190.27 405,181 C513.25,165.39 544.49,180.75 649,213 C652.97,214.22 656.98,215.54 661,216.94 " fill="none" id="rowan-kitt" style="stroke: #A80036; stroke-width: 1.0;"/><polygon fill="#A80036" points="665.74,218.61,658.5758,211.8517,661.0229,216.9519,655.9228,219.399,665.74,218.61" style="stroke: #A80036; stroke-width: 1.0;"/><polygon fill="#A80036" points="210.16,230.52,219.9639,231.4598,214.902,228.9346,217.4272,223.8726,210.16,230.52" style="stroke: #A80036; stroke-width: 1.0;"/><text fill="#000000" font-family="sans-serif" font-size="13" lengthAdjust="spacingAndGlyphs" textLength="64" x="406" y="179.0669">coworkers</text><!--MD5=[d26b699957b6582687a5e3c8b09cf5a7]
link master to hess--><path d="M434.69,89.78 C442.73,90.67 450.73,91.43 458.5,92 C479.46,93.55 501.74,92.94 523.23,91.18 " fill="none" id="master-&gt;hess" style="stroke: #A80036; stroke-width: 1.0;"/><polygon fill="#A80036" points="528.39,90.74,519.0805,87.5255,523.4084,91.1682,519.7656,95.4961,528.39,90.74" style="stroke: #A80036; stroke-width: 1.0;"/><text fill="#000000" font-family="sans-serif" font-size="13" lengthAdjust="spacingAndGlyphs" textLength="44" x="459.5" y="88.0669">Master</text><!--MD5=[f44e0dc67b7111e01017f10180fd5afb]
reverse link master to hess--><path d="M439.62,72 C468.61,72 499.65,72 528.39,72 " fill="none" id="master&lt;-hess" style="stroke: #A80036; stroke-width: 1.0;"/><polygon fill="#A80036" points="434.61,72,443.61,76,439.61,72,443.61,68,434.61,72" style="stroke: #A80036; stroke-width: 1.0;"/><text fill="#000000" font-family="sans-serif" font-size="13" lengthAdjust="spacingAndGlyphs" textLength="57" x="453" y="65.0669">Padawan</text><!--MD5=[ccaad1686cbf3de74becb896625c0639]
link rowan to tarei--><path d="M210.22,268.5 C263.06,268.5 328.02,268.5 383.94,268.5 " fill="none" id="rowan-&gt;tarei" style="stroke: #A80036; stroke-width: 1.0;"/><polygon fill="#A80036" points="388.98,268.5,379.98,264.5,383.98,268.5,379.98,272.5,388.98,268.5" style="stroke: #A80036; stroke-width: 1.0;"/><text fill="#000000" font-family="sans-serif" font-size="13" lengthAdjust="spacingAndGlyphs" textLength="142" x="228.5" y="261.5669">Reluctant Subordinate</text><!--MD5=[a47e23b04c58be8a8a77d3ee9b112ed7]
link tarei to rowan--><path d="M388.96,285.42 C350.76,288.92 308.39,290.9 269.5,288.5 C251.97,287.42 233.44,285.68 215.41,283.68 " fill="none" id="tarei-&gt;rowan" style="stroke: #A80036; stroke-width: 1.0;"/><polygon fill="#A80036" points="210.34,283.1,218.8369,288.0802,215.3087,283.6584,219.7304,280.1302,210.34,283.1" style="stroke: #A80036; stroke-width: 1.0;"/><text fill="#000000" font-family="sans-serif" font-size="13" lengthAdjust="spacingAndGlyphs" textLength="58" x="270.5" y="284.5669">Overseer</text><!--MD5=[fb4c5306f4a5c70525e23eb720768e92]
@startuml starwars-2021

skinparam componentStyle rectangle

component kitt [
Kitt Rocko
Nautolan Slicer
Ship Engineer
Fun Loving Hacker
Homeworld: Glee Anselm
]

component rowan [
Rowan Cloudcaster
Human Pilot
Wild Card
Homeworld: Bovoyogan
]

component hess [
Hess Ruutizz
Kel Dor Padawan
Order of the Dragon
Ship Gunner
Mystical Muscle
Homeworld: New Alderaan
]

component tarei [
Tarei Vosek
Munn Banking Clan Aristocrat
Ship Commander
Homeworld: Scipio
]

component master [
Master Satechi
Human Jedi
Stoic Master
Homeworld: New Alderaan
]


component carnet [
Carnet Kaserin
Human pilot
deceased
]


carnet <- - rowan : former boss
rowan <-> kitt : coworkers
master -> hess : Master
master <- hess : Padawan
rowan -> tarei : Reluctant Subordinate
tarei -> rowan : Overseer

@enduml

PlantUML version 1.2020.02(Sun Mar 01 05:22:07 EST 2020)
(GPL source distribution)
Java Runtime: OpenJDK Runtime Environment
JVM: OpenJDK 64-Bit Server VM
Java Version: 11.0.15+10-post-Debian-1deb11u1
Operating System: Linux
Default Encoding: UTF-8
Language: en
Country: US
--></g></svg>